<?xml version="1.0" encoding="UTF-8"?>
<svg version="1.1" xmlns="http://www.w3.org/2000/svg" width="900" height="565">
<path d="M0 0 C297 0 594 0 900 0 C900 186.45 900 372.9 900 565 C603 565 306 565 0 565 C0 378.55 0 192.1 0 0 Z " fill="#D8D8D8" transform="translate(0,0)"/>
<path d="M0 0 C7.26 0 14.52 0 22 0 C22 36.96 22 73.92 22 112 C31.57 111.67 41.14 111.34 51 111 C48.03 108.69 45.06 106.38 42 104 C32.79061016 94.96771381 29.76761166 83.53556527 29.625 71 C29.58815552 62.37323252 30.44100494 55.5259601 35 48 C35.44601562 47.2575 35.89203125 46.515 36.3515625 45.75 C42.32588368 36.93871067 51.66893817 30.46289027 62 28 C77.45391893 26.25560899 91.00695959 27.98119977 103.5234375 37.73828125 C111.57487148 45.09124698 116.71849543 54.64175579 117.34375 65.5703125 C117.77624616 79.64660245 115.53648412 90.9388938 106.30078125 102.04296875 C102.3869186 106.16791613 99.24198397 108.00458059 94 111 C104.23 111.33 114.46 111.66 125 112 C125 84.61 125 57.22 125 29 C132.26 29 139.52 29 147 29 C147.33 31.97 147.66 34.94 148 38 C148.66 37.2575 149.32 36.515 150 35.75 C156.10038635 29.6147543 163.72989927 27.78156053 172.125 27.75 C181.66716725 27.7550127 189.87612289 29.15516877 197 36 C205.90534776 46.21713136 207.47149277 56.88917599 207.29296875 70.10546875 C207.28872391 71.3106868 207.28447906 72.51590485 207.28010559 73.75764465 C207.26345222 77.56783376 207.22582443 81.37747356 207.1875 85.1875 C207.17243595 87.78710168 207.15875057 90.38671174 207.14648438 92.98632812 C207.11359235 99.32442705 207.06190265 105.66212073 207 112 C210.3 112 213.6 112 217 112 C217 113.32 217 114.64 217 116 C5.14 116 -206.72 116 -425 116 C-425 128.87 -425 141.74 -425 155 C-432.26 155 -439.52 155 -447 155 C-447 141.8 -447 128.6 -447 115 C-450.63 115 -454.26 115 -458 115 C-458 114.34 -458 113.68 -458 113 C-454.37 113 -450.74 113 -447 113 C-447 85.28 -447 57.56 -447 29 C-440.07 29 -433.14 29 -426 29 C-425.505 34.445 -425.505 34.445 -425 40 C-424.319375 39.278125 -423.63875 38.55625 -422.9375 37.8125 C-415.63213862 30.54841184 -408.62611053 27.59784749 -398.3125 27.625 C-386.55564001 27.70222271 -378.74248839 30.30674388 -370.15625 38.6484375 C-367.17335431 41.90152301 -364.92773741 45.03457818 -363 49 C-362.60941406 49.72832031 -362.21882813 50.45664062 -361.81640625 51.20703125 C-356.47577841 62.94162874 -357.28951735 79.29051899 -361.671875 91.203125 C-365.44509881 99.14909043 -370.93523996 106.96761998 -379 111 C-364.15 111 -349.3 111 -334 111 C-336.97 109.02 -339.94 107.04 -343 105 C-348.17627933 99.89499474 -351.50476634 93.77615586 -354 87 C-354.53560547 85.64648438 -354.53560547 85.64648438 -355.08203125 84.265625 C-358.47001382 72.21305723 -356.40641751 58.04845646 -350.46875 47.203125 C-349.07497542 45.00314748 -347.74694243 42.9316192 -346 41 C-345.34 41 -344.68 41 -344 41 C-343.78859375 40.41476563 -343.5771875 39.82953125 -343.359375 39.2265625 C-341.50660225 36.19184851 -339.33116398 35.11486125 -336.25 33.375 C-335.22390625 32.78460938 -334.1978125 32.19421875 -333.140625 31.5859375 C-326.51249451 28.23889648 -321.06267357 27.66149476 -313.75 27.6875 C-312.41388672 27.66333008 -312.41388672 27.66333008 -311.05078125 27.63867188 C-299.58113537 27.63034847 -289.30032632 31.24033215 -280.76953125 39.0390625 C-271.33340979 49.05940912 -267.47566972 60.04684131 -267.7578125 73.63671875 C-268.49675873 83.89853651 -271.88257733 92.68620148 -278 101 C-278.66 101 -279.32 101 -280 101 C-280.33 101.99 -280.66 102.98 -281 104 C-284.3 106.31 -287.6 108.62 -291 111 C-277.14 111 -263.28 111 -249 111 C-251.64 109.02 -254.28 107.04 -257 105 C-262.20195495 99.37626492 -263.91065409 94.62542137 -265 87 C-257.74 87 -250.48 87 -243 87 C-242.01 88.98 -241.02 90.96 -240 93 C-237.25744846 95.82708224 -235.76024421 96.88897424 -231.84375 97.4609375 C-230.7403125 97.43257813 -229.636875 97.40421875 -228.5 97.375 C-226.84484375 97.35566406 -226.84484375 97.35566406 -225.15625 97.3359375 C-222.04195161 97.00446515 -219.78122948 96.4208455 -217 95 C-215.5216774 92.04335481 -215.93967217 89.25770263 -216 86 C-222.03563853 82.72834547 -227.87231155 80.73061592 -234.5 79 C-243.87105358 76.55303909 -254.71140904 73.71257715 -260.2578125 65.03125 C-263.52661226 58.53936796 -264.36362713 52.37934096 -262.1875 45.390625 C-258.70794197 37.41663786 -253.19466532 32.94866677 -245.41796875 29.3359375 C-240.21704005 27.48370995 -235.09339606 27.52313327 -229.625 27.5625 C-228.64789063 27.54251953 -227.67078125 27.52253906 -226.6640625 27.50195312 C-217.51520521 27.50803614 -209.31423088 29.8637674 -202.53515625 36.2421875 C-196.93566185 42.65382231 -195.96551245 47.31038792 -195 56 C-201.93 56 -208.86 56 -216 56 C-216.99 53.03 -216.99 53.03 -218 50 C-220.7779038 47.01835012 -222.36562244 46.09882629 -226.41015625 45.46875 C-227.61542969 45.4790625 -228.82070313 45.489375 -230.0625 45.5 C-231.27035156 45.4896875 -232.47820312 45.479375 -233.72265625 45.46875 C-237.05443773 45.75036452 -237.05443773 45.75036452 -239.4296875 47.80859375 C-241.33801374 50.03344905 -241.33801374 50.03344905 -241.0625 53.5625 C-240.35104135 57.08048807 -240.35104135 57.08048807 -237.79980469 58.6003418 C-234.93090306 60.03454244 -232.22751751 60.968819 -229.140625 61.83203125 C-228.02429688 62.15623047 -226.90796875 62.48042969 -225.7578125 62.81445312 C-223.43680046 63.47483016 -221.1138928 64.128584 -218.7890625 64.77539062 C-208.42048002 67.80849895 -200.68326903 71.58708567 -195 81 C-192.46035983 88.61892052 -193.66471758 95.5365231 -197.125 102.61328125 C-199 105 -199 105 -207 111 C-194.13 111 -181.26 111 -168 111 C-170.64 109.02 -173.28 107.04 -176 105 C-185.16919454 96.8343989 -189.26854226 86.12523514 -190.23828125 74.02734375 C-190.54886152 61.09739673 -187.01690948 48.72767402 -178.1875 39.00390625 C-167.41422812 28.90396386 -156.16065872 27.50532037 -142.03515625 27.73046875 C-131.03284751 28.14538026 -122.7321885 32.19889716 -115 40 C-105.19434166 52.06531323 -105 62.02015376 -105 78 C-125.46 78 -145.92 78 -167 78 C-165.95289101 85.32976296 -164.82096005 88.45425556 -159.4375 93.3125 C-153.89976896 97.1463138 -147.48034064 96.43149001 -141 96 C-136.72074657 94.62452568 -135.45255385 93.72998503 -133.08203125 89.90625 C-131.24643216 87.66062098 -130.32902991 87.06271721 -127.44091797 86.51220703 C-124.33712368 86.40931034 -121.28936802 86.47720177 -118.1875 86.625 C-117.11306641 86.65207031 -116.03863281 86.67914063 -114.93164062 86.70703125 C-112.28570432 86.77758955 -109.6438876 86.87611244 -107 87 C-108.60623953 92.69676498 -110.19506243 96.95423745 -114.375 101.3125 C-115.12523437 102.11300781 -115.87546875 102.91351563 -116.6484375 103.73828125 C-120.24245133 107.19498226 -123.52384443 109.76192221 -128 112 C-117.77 112.33 -107.54 112.66 -97 113 C-97 85.28 -97 57.56 -97 29 C-89.74 29 -82.48 29 -75 29 C-75 56.39 -75 83.78 -75 112 C-65.76 111.67 -56.52 111.34 -47 111 C-49.97 108.69 -52.94 106.38 -56 104 C-66.06539686 90.89599277 -68.29222771 77.45762857 -66.7265625 61.15234375 C-64.89305874 50.23780724 -59.22132732 41.3136098 -51 34 C-41.30107615 27.79951496 -31.28396174 26.80625667 -20 28 C-11.86315024 30.08360833 -7.49793926 33.43033777 -1 39 C-0.67 26.13 -0.34 13.26 0 0 Z " fill="#3C749C" transform="translate(655,211)"/>
<path d="M0 0 C1.89400016 1.41668583 1.89400016 1.41668583 4.8046875 2.234375 C4.8046875 2.894375 4.8046875 3.554375 4.8046875 4.234375 C5.4646875 4.234375 6.1246875 4.234375 6.8046875 4.234375 C6.8046875 4.894375 6.8046875 5.554375 6.8046875 6.234375 C7.37703125 6.4921875 7.949375 6.75 8.5390625 7.015625 C11.01597745 8.34803442 12.9388041 9.88493618 15.0546875 11.734375 C15.76109375 12.3428125 16.4675 12.95125 17.1953125 13.578125 C18.8046875 15.234375 18.8046875 15.234375 18.8046875 17.234375 C19.7946875 17.564375 20.7846875 17.894375 21.8046875 18.234375 C23.8125 20.6328125 23.8125 20.6328125 25.9296875 23.609375 C26.63351562 24.58648437 27.33734375 25.56359375 28.0625 26.5703125 C29.8046875 29.234375 29.8046875 29.234375 30.8046875 32.234375 C31.7946875 32.894375 32.7846875 33.554375 33.8046875 34.234375 C35.42253877 36.87402707 35.8046875 38.07450175 35.8046875 41.234375 C36.4646875 41.234375 37.1246875 41.234375 37.8046875 41.234375 C39.06133728 44.14037761 39.8046875 46.03042084 39.8046875 49.234375 C40.4646875 49.234375 41.1246875 49.234375 41.8046875 49.234375 C44.8046875 55.859375 44.8046875 55.859375 44.8046875 59.234375 C45.4646875 59.234375 46.1246875 59.234375 46.8046875 59.234375 C58.8046875 90.81516103 58.8046875 90.81516103 58.8046875 100.234375 C57.8146875 100.729375 57.8146875 100.729375 56.8046875 101.234375 C56.8046875 102.224375 56.8046875 103.214375 56.8046875 104.234375 C56.17079102 104.23848389 55.53689453 104.24259277 54.88378906 104.24682617 C39.38278903 104.42278195 27.20522677 105.03837604 14.8046875 115.234375 C14.4746875 115.894375 14.1446875 116.554375 13.8046875 117.234375 C13.1446875 117.234375 12.4846875 117.234375 11.8046875 117.234375 C11.5365625 117.976875 11.2684375 118.719375 10.9921875 119.484375 C9.8046875 122.234375 9.8046875 122.234375 8.3671875 124.0546875 C1.70469733 133.34886129 1.65092954 146.27882505 2.8046875 157.234375 C4.85591009 168.49045898 10.92642625 177.83709983 20.3046875 184.359375 C21.160625 184.89820313 22.0165625 185.43703125 22.8984375 185.9921875 C23.5275 186.40210938 24.1565625 186.81203125 24.8046875 187.234375 C24.8046875 187.564375 24.8046875 187.894375 24.8046875 188.234375 C9.2946875 188.234375 -6.2153125 188.234375 -22.1953125 188.234375 C-19.6400892 185.6791517 -17.60619095 183.75801403 -14.8203125 181.671875 C-7.2348944 175.20961967 -3.02691689 164.39533789 -1.89404297 154.64013672 C-1.76003009 152.01773706 -1.72756701 149.42242507 -1.7578125 146.796875 C-1.76466064 145.87817627 -1.77150879 144.95947754 -1.77856445 144.01293945 C-1.94148274 137.12704863 -2.90181565 131.36634611 -6.1953125 125.234375 C-6.5459375 124.52539062 -6.8965625 123.81640625 -7.2578125 123.0859375 C-11.76353062 114.91932341 -18.9954962 108.67338607 -27.90234375 105.859375 C-37.94205857 103.9538538 -49.39984611 103.3958427 -58.1953125 109.234375 C-58.84886719 109.65460938 -59.50242187 110.07484375 -60.17578125 110.5078125 C-63.14826905 112.53032997 -65.64961739 114.68867989 -68.1953125 117.234375 C-68.1953125 113.274375 -68.1953125 109.314375 -68.1953125 105.234375 C-75.1253125 105.234375 -82.0553125 105.234375 -89.1953125 105.234375 C-89.1953125 132.954375 -89.1953125 160.674375 -89.1953125 189.234375 C-92.8253125 189.234375 -96.4553125 189.234375 -100.1953125 189.234375 C-100.1953125 189.894375 -100.1953125 190.554375 -100.1953125 191.234375 C-96.5653125 191.234375 -92.9353125 191.234375 -89.1953125 191.234375 C-89.1953125 204.434375 -89.1953125 217.634375 -89.1953125 231.234375 C-81.9353125 231.234375 -74.6753125 231.234375 -67.1953125 231.234375 C-67.1953125 218.364375 -67.1953125 205.494375 -67.1953125 192.234375 C-24.2953125 192.234375 18.6046875 192.234375 62.8046875 192.234375 C54.94905534 230.20326376 54.94905534 230.20326376 50.90234375 238.7890625 C49.5845349 241.72482171 48.48396773 244.71661777 47.3671875 247.734375 C44.89574697 254.22190639 41.80887992 259.96361062 38.19140625 265.8671875 C37.65128906 266.75148438 37.11117187 267.63578125 36.5546875 268.546875 C36.05453125 269.34738281 35.554375 270.14789063 35.0390625 270.97265625 C33.88227176 273.09221903 33.25805436 274.87578789 32.8046875 277.234375 C32.1446875 277.234375 31.4846875 277.234375 30.8046875 277.234375 C30.8046875 277.894375 30.8046875 278.554375 30.8046875 279.234375 C30.1446875 279.234375 29.4846875 279.234375 28.8046875 279.234375 C28.39283203 280.10449219 28.39283203 280.10449219 27.97265625 280.9921875 C19.55082919 297.15984213 1.54662856 310.88116284 -15.1953125 317.234375 C-16.08992187 317.60691406 -16.98453125 317.97945313 -17.90625 318.36328125 C-34.15098771 324.35587729 -53.49487945 322.64193631 -69.12890625 315.50390625 C-77.34877466 311.48699419 -84.45408449 306.43512555 -91.1953125 300.234375 C-91.6809668 299.79109863 -92.16662109 299.34782227 -92.66699219 298.89111328 C-103.86244999 288.56209907 -112.31910082 276.81631377 -119.1953125 263.234375 C-119.73542969 262.23792969 -120.27554688 261.24148438 -120.83203125 260.21484375 C-126.41389518 249.64066107 -130.41083537 238.55671812 -134.1953125 227.234375 C-134.45086914 226.47141113 -134.70642578 225.70844727 -134.96972656 224.92236328 C-139.49482666 211.04811687 -141.38821185 196.67593537 -143.1953125 182.234375 C-143.30206299 181.41042236 -143.40881348 180.58646973 -143.51879883 179.73754883 C-144.40067185 172.15092796 -144.3938843 164.5510184 -144.3828125 156.921875 C-144.38254059 156.21739227 -144.38226868 155.51290955 -144.38198853 154.78707886 C-144.35051424 136.99453815 -142.78359903 119.66374531 -139.1953125 102.234375 C-139.04255859 101.45723145 -138.88980469 100.68008789 -138.73242188 99.87939453 C-132.35817606 67.9764212 -118.80551777 37.83300455 -96.1953125 14.234375 C-95.53917969 13.52667969 -94.88304687 12.81898438 -94.20703125 12.08984375 C-70.15523408 -13.11875328 -29.28079209 -21.43574968 0 0 Z " fill="#EBF1FD" transform="translate(297.1953125,134.765625)"/>
<path d="M0 0 C1.44302318 0.00186929 2.886047 0.00329077 4.32907104 0.00428772 C8.09368702 0.00807269 11.85826329 0.01786776 15.62286377 0.0289917 C19.47773705 0.03929312 23.33261687 0.04380389 27.1875 0.04882812 C34.72658043 0.05949438 42.26562837 0.07652139 49.8046875 0.09765625 C46.68512859 2.17736219 44.04854171 3.07076802 40.4921875 4.22265625 C26.48773174 9.07478075 16.08717427 16.64943203 5.8046875 27.09765625 C4.45890625 28.44537109 4.45890625 28.44537109 3.0859375 29.8203125 C-3.40076351 36.61733408 -8.47568014 44.02585876 -13.1953125 52.09765625 C-13.5651123 52.72349609 -13.93491211 53.34933594 -14.31591797 53.99414062 C-34.28954292 88.27425355 -41.35310081 128.24871628 -41.4453125 167.47265625 C-41.44698425 168.15654419 -41.44865601 168.84043213 -41.45037842 169.54504395 C-41.45230879 182.88083324 -40.25881818 195.91743421 -38.1953125 209.09765625 C-37.97742065 210.56658325 -37.97742065 210.56658325 -37.75512695 212.06518555 C-36.67790736 219.00695646 -35.12489358 225.6760808 -33.1328125 232.41015625 C-32.83117187 233.43343018 -32.52953125 234.4567041 -32.21875 235.51098633 C-27.45903635 251.2389976 -21.82394198 267.04221578 -13.1953125 281.09765625 C-12.65269775 281.98541748 -12.65269775 281.98541748 -12.09912109 282.89111328 C-6.34291321 292.20213286 0.08031193 300.35146041 7.8046875 308.09765625 C8.65546875 308.97164063 9.50625 309.845625 10.3828125 310.74609375 C21.9311293 321.98322836 35.41664459 328.02555447 50.8046875 332.09765625 C50.8046875 332.42765625 50.8046875 332.75765625 50.8046875 333.09765625 C42.56207379 333.16803501 34.3195914 333.2209032 26.07674885 333.25309277 C22.24677522 333.26856384 18.41701122 333.28944901 14.5871582 333.32397461 C-27.20410976 333.69028688 -27.20410976 333.69028688 -46.7578125 327.22265625 C-47.58313477 326.96145996 -48.40845703 326.70026367 -49.25878906 326.43115234 C-55.73528804 324.34224622 -62.03088718 321.98950886 -68.1953125 319.09765625 C-68.79230957 318.82228027 -69.38930664 318.5469043 -70.00439453 318.26318359 C-85.7595327 310.94137573 -99.20147609 301.56688252 -112.1953125 290.09765625 C-113.42894531 289.06511719 -113.42894531 289.06511719 -114.6875 288.01171875 C-120.64578803 282.96057492 -125.40773985 277.25081171 -130.1953125 271.09765625 C-131.05416156 270.01650908 -131.91355029 268.93579042 -132.7734375 267.85546875 C-150.30277481 245.58759552 -160.88263907 219.02144105 -165.1953125 191.09765625 C-165.36804688 190.02676758 -165.54078125 188.95587891 -165.71875 187.85253906 C-166.47785639 181.87146518 -166.38126495 175.88617778 -166.38061523 169.8671875 C-166.38277992 167.6313102 -166.40091174 165.39594514 -166.41992188 163.16015625 C-166.47417072 149.79756519 -165.0541913 136.93374086 -161.6328125 123.97265625 C-161.37741699 123.00400635 -161.12202148 122.03535645 -160.85888672 121.03735352 C-154.03306023 96.36136948 -141.18971954 74.72375266 -124.7578125 55.28515625 C-124.24959961 54.67994141 -123.74138672 54.07472656 -123.21777344 53.45117188 C-119.56282737 49.22016121 -119.56282737 49.22016121 -116.1953125 48.09765625 C-115.8653125 47.10765625 -115.5353125 46.11765625 -115.1953125 45.09765625 C-105.1965864 34.21146925 -91.12313223 25.99642436 -78.1953125 19.09765625 C-77.15761719 18.515 -76.11992188 17.93234375 -75.05078125 17.33203125 C-51.71072013 4.80121246 -26.24099505 -0.10087466 0 0 Z " fill="#1B6DF2" transform="translate(195.1953125,122.90234375)"/>
<path d="M0 0 C1.14726562 0.00451172 2.29453125 0.00902344 3.4765625 0.01367188 C6.27609813 0.02533661 9.07551986 0.04170386 11.875 0.0625 C11.875 0.3925 11.875 0.7225 11.875 1.0625 C10.74578125 1.20945312 10.74578125 1.20945312 9.59375 1.359375 C-2.33920105 3.03925646 -13.89371724 5.65807539 -25.125 10.0625 C-26.115 10.0625 -27.105 10.0625 -28.125 10.0625 C-28.125 10.7225 -28.125 11.3825 -28.125 12.0625 C-29.32125 12.5575 -30.5175 13.0525 -31.75 13.5625 C-37.3970701 16.05834338 -42.66303033 19.15154082 -47.98828125 22.2578125 C-51.125 24.0625 -51.125 24.0625 -53.48046875 25.1171875 C-55.48196132 26.0252354 -55.48196132 26.0252354 -56.125 29.0625 C-60.45833333 32.0625 -60.45833333 32.0625 -63.125 32.0625 C-63.125 32.7225 -63.125 33.3825 -63.125 34.0625 C-63.74375 34.145 -64.3625 34.2275 -65 34.3125 C-65.70125 34.56 -66.4025 34.8075 -67.125 35.0625 C-67.39828125 35.63742188 -67.6715625 36.21234375 -67.953125 36.8046875 C-69.98684576 40.72298949 -73.44810761 43.41196665 -76.6171875 46.4296875 C-79.20209735 49.1434402 -81.10358126 51.91312961 -83.125 55.0625 C-84.57031361 57.00973161 -86.02894379 58.94714212 -87.5 60.875 C-95.53655021 71.10807149 -95.53655021 71.10807149 -100.125 83.0625 C-100.785 83.0625 -101.445 83.0625 -102.125 83.0625 C-102.125 84.3825 -102.125 85.7025 -102.125 87.0625 C-102.785 87.0625 -103.445 87.0625 -104.125 87.0625 C-104.393125 88.25875 -104.66125 89.455 -104.9375 90.6875 C-105.61212419 93.41948874 -106.32981793 95.46360179 -107.625 98 C-109.18969497 101.19458556 -109.88775621 104.01133377 -110.5859375 107.47265625 C-111.60589111 112.37286814 -112.89385934 117.21180578 -114.125 122.0625 C-114.785 122.0625 -115.445 122.0625 -116.125 122.0625 C-118.55158698 138.16875599 -119.45139457 154.04606649 -119.5 170.3125 C-119.51123901 171.61560623 -119.51123901 171.61560623 -119.52270508 172.94503784 C-119.60158111 184.0845683 -118.77926081 194.19828578 -116.125 205.0625 C-115.91568848 206.0004541 -115.70637695 206.9384082 -115.49072266 207.90478516 C-113.21995109 218.04730847 -110.46217057 227.59098421 -106.125 237.0625 C-105.26586355 239.16464239 -104.41171947 241.26883183 -103.5625 243.375 C-102.19336395 246.68159273 -100.78465086 249.81009783 -98.9375 252.875 C-97.46403493 255.46626616 -96.75158489 257.14162277 -96.0625 259.9375 C-95.753125 260.96875 -95.44375 262 -95.125 263.0625 C-94.135 263.3925 -93.145 263.7225 -92.125 264.0625 C-92.125 264.7225 -92.125 265.3825 -92.125 266.0625 C-91.465 266.0625 -90.805 266.0625 -90.125 266.0625 C-89.135 269.5275 -89.135 269.5275 -88.125 273.0625 C-87.465 273.0625 -86.805 273.0625 -86.125 273.0625 C-86.021875 273.701875 -85.91875 274.34125 -85.8125 275 C-85.4721875 276.0209375 -85.4721875 276.0209375 -85.125 277.0625 C-84.135 277.3925 -83.145 277.7225 -82.125 278.0625 C-81.4412955 279.38717746 -80.77535814 280.72113633 -80.125 282.0625 C-79.135 282.7225 -78.145 283.3825 -77.125 284.0625 C-76.81175781 284.6915625 -76.49851562 285.320625 -76.17578125 285.96875 C-74.91841992 288.47412425 -73.45091356 289.76345226 -71.3125 291.5625 C-70.59835938 292.16835938 -69.88421875 292.77421875 -69.1484375 293.3984375 C-67.59196291 294.67847259 -66.0182683 295.93759018 -64.4375 297.1875 C-61.81126815 299.31687717 -59.51550675 301.67199325 -57.125 304.0625 C-51.74459596 309.2871555 -45.78324403 312.67110664 -39.125 316.0625 C-38.36316406 316.45695312 -37.60132813 316.85140625 -36.81640625 317.2578125 C-33.31385671 319.04550319 -29.81170237 320.67998661 -26.125 322.0625 C-26.125 322.7225 -26.125 323.3825 -26.125 324.0625 C-24.990625 324.165625 -23.85625 324.26875 -22.6875 324.375 C-17.43870892 325.0276028 -11.98151769 326.35508147 -7.40625 329.08984375 C-3.85722295 330.60304193 -0.19035793 330.8015351 3.625 331.1875 C4.41777344 331.27386719 5.21054688 331.36023438 6.02734375 331.44921875 C7.97583141 331.66050054 9.92532976 331.86242467 11.875 332.0625 C11.875 332.3925 11.875 332.7225 11.875 333.0625 C-15.58497348 333.72892126 -41.00056408 330.84886481 -66.125 319.0625 C-66.72199707 318.78712402 -67.31899414 318.51174805 -67.93408203 318.22802734 C-83.6892202 310.90621948 -97.13116359 301.53172627 -110.125 290.0625 C-111.35863281 289.02996094 -111.35863281 289.02996094 -112.6171875 287.9765625 C-118.57547553 282.92541867 -123.33742735 277.21565546 -128.125 271.0625 C-128.98384906 269.98135283 -129.84323779 268.90063417 -130.703125 267.8203125 C-148.23246231 245.55243927 -158.81232657 218.9862848 -163.125 191.0625 C-163.29773438 189.99161133 -163.47046875 188.92072266 -163.6484375 187.81738281 C-164.40754389 181.83630893 -164.31095245 175.85102153 -164.31030273 169.83203125 C-164.31246742 167.59615395 -164.33059924 165.36078889 -164.34960938 163.125 C-164.40385822 149.76240894 -162.9838788 136.89858461 -159.5625 123.9375 C-159.30710449 122.9688501 -159.05170898 122.0002002 -158.78857422 121.00219727 C-151.96274773 96.32621323 -139.11940704 74.68859641 -122.6875 55.25 C-122.17928711 54.64478516 -121.67107422 54.03957031 -121.14746094 53.41601562 C-117.49251487 49.18500496 -117.49251487 49.18500496 -114.125 48.0625 C-113.795 47.0725 -113.465 46.0825 -113.125 45.0625 C-103.1262739 34.176313 -89.05281973 25.96126811 -76.125 19.0625 C-75.08730469 18.47984375 -74.04960938 17.8971875 -72.98046875 17.296875 C-50.4491871 5.20027397 -25.40606047 -0.19202255 0 0 Z " fill="#0B57CE" transform="translate(193.125,122.9375)"/>
<path d="M0 0 C-3.11955891 2.07970594 -5.75614579 2.97311177 -9.3125 4.125 C-23.31695576 8.9771245 -33.71751323 16.55177578 -44 27 C-45.34578125 28.34771484 -45.34578125 28.34771484 -46.71875 29.72265625 C-53.20545101 36.51967783 -58.28036764 43.92820251 -63 52 C-63.55469971 52.93875977 -63.55469971 52.93875977 -64.12060547 53.89648438 C-84.09423042 88.1765973 -91.15778831 128.15106003 -91.25 167.375 C-91.25250763 168.40083191 -91.25250763 168.40083191 -91.25506592 169.4473877 C-91.25699629 182.78317699 -90.06350568 195.81977796 -88 209 C-87.85473877 209.97928467 -87.70947754 210.95856934 -87.55981445 211.9675293 C-86.48259486 218.90930021 -84.92958108 225.57842455 -82.9375 232.3125 C-82.63585937 233.33577393 -82.33421875 234.35904785 -82.0234375 235.41333008 C-77.26372385 251.14134135 -71.62862948 266.94455953 -63 281 C-62.63825684 281.59184082 -62.27651367 282.18368164 -61.90380859 282.79345703 C-56.14760071 292.10447661 -49.72437557 300.25380416 -42 308 C-41.14921875 308.87398438 -40.2984375 309.74796875 -39.421875 310.6484375 C-27.8735582 321.88557211 -14.38804291 327.92789822 1 332 C1 332.33 1 332.66 1 333 C-19.93054985 333.57902136 -37.14085243 330.81990277 -55.9375 321 C-56.55246338 320.6800708 -57.16742676 320.3601416 -57.80102539 320.03051758 C-62.00814071 317.7538406 -65.50988259 315.2396815 -69 312 C-69 311.34 -69 310.68 -69 310 C-70.32 309.67 -71.64 309.34 -73 309 C-73 308.34 -73 307.68 -73 307 C-74.11375 306.6596875 -74.11375 306.6596875 -75.25 306.3125 C-78.53407705 304.74509959 -79.83870845 302.88172206 -82 300 C-82.99 299.34 -83.98 298.68 -85 298 C-85 297.34 -85 296.68 -85 296 C-85.99 295.67 -86.98 295.34 -88 295 C-89.60546875 293.22265625 -89.60546875 293.22265625 -91.1875 291.0625 C-91.71730469 290.35222656 -92.24710938 289.64195312 -92.79296875 288.91015625 C-94 287 -94 287 -94 285 C-94.66 285 -95.32 285 -96 285 C-97.48046875 283.015625 -97.48046875 283.015625 -99.1875 280.25 C-99.80882812 279.24453125 -100.43015625 278.2390625 -101.0703125 277.203125 C-103.52151475 273.13432774 -105.95567225 269.05958343 -108.31640625 264.9375 C-109.3630963 263.11125658 -110.42995569 261.29623621 -111.52734375 259.5 C-116.78343764 250.5771881 -119.82267928 240.80471102 -123 231 C-123.39316406 229.80246094 -123.78632812 228.60492188 -124.19140625 227.37109375 C-126.34855753 220.34131842 -127.83184616 213.21911728 -129.1875 206 C-129.35467529 205.12230957 -129.52185059 204.24461914 -129.6940918 203.34033203 C-131.94525935 190.73796902 -132.21147245 178.02370129 -132.1875 165.25 C-132.18623108 164.54735016 -132.18496216 163.84470032 -132.18365479 163.12075806 C-132.08777723 135.17324307 -126.89175034 108.82982903 -116 83 C-115.45812823 81.68030535 -114.91764552 80.36003902 -114.37890625 79.0390625 C-113.27260095 76.35008248 -112.15002364 73.67048759 -111 71 C-110.34 71 -109.68 71 -109 71 C-108.73058594 70.12472656 -108.46117187 69.24945313 -108.18359375 68.34765625 C-104.26150789 57.2544959 -96.66759271 48.65732649 -89 40 C-88.35804688 39.23558594 -87.71609375 38.47117188 -87.0546875 37.68359375 C-82.83126396 32.66459508 -78.21719442 27.99524461 -73 24 C-72.34 24 -71.68 24 -71 24 C-71 23.34 -71 22.68 -71 22 C-69.02 21.34 -67.04 20.68 -65 20 C-65 19.34 -65 18.68 -65 18 C-64.34 18 -63.68 18 -63 18 C-63 17.34 -63 16.68 -63 16 C-61.37750059 15.16180842 -59.75191503 14.3295884 -58.125 13.5 C-57.22007812 13.0359375 -56.31515625 12.571875 -55.3828125 12.09375 C-53 11 -53 11 -51 11 C-51 10.34 -51 9.68 -51 9 C-33.98883078 2.32680822 -18.30036231 -0.7303914 0 0 Z " fill="#4290F5" transform="translate(245,123)"/>
<path d="M0 0 C6.93 0 13.86 0 21 0 C21 36.96 21 73.92 21 112 C14.07 112 7.14 112 0 112 C-0.495 107.545 -0.495 107.545 -1 103 C-1.721875 103.7425 -2.44375 104.485 -3.1875 105.25 C-8.28945354 110.23857679 -11.30113264 112.62279575 -18.57421875 112.63671875 C-19.2980928 112.64766068 -20.02196686 112.6586026 -20.76777649 112.6698761 C-22.29652827 112.68569577 -23.82542155 112.69095067 -25.35424805 112.6862793 C-27.66507153 112.68748827 -29.96945179 112.74713162 -32.27929688 112.81054688 C-40.46681709 112.90774799 -46.51942517 112.25463158 -53.09765625 106.8671875 C-61.71156744 98.41246563 -66.59056447 87.56958086 -67.16796875 75.484375 C-67.25112699 59.58452028 -64.62128004 48.05603529 -53.4765625 36.203125 C-44.35593694 28.08950857 -33.83255032 27.1705523 -22.14160156 27.7734375 C-13.22702725 28.7165206 -7.65756389 33.29351667 -1 39 C-0.67 26.13 -0.34 13.26 0 0 Z " fill="#010102" transform="translate(655,211)"/>
<path d="M0 0 C7.53527631 4.46136201 13.6300115 10.57668536 17.4609375 18.45703125 C17.85152344 19.18535156 18.24210937 19.91367187 18.64453125 20.6640625 C23.98515909 32.39865999 23.17142015 48.74755024 18.7890625 60.66015625 C14.10206186 70.53042818 7.50767476 78.02523846 -2.5390625 82.45703125 C-7.27382131 83.10495708 -12.01421383 83.01236181 -16.7890625 83.01953125 C-18.69751953 83.07463867 -18.69751953 83.07463867 -20.64453125 83.13085938 C-29.02276868 83.1697676 -35.06650951 82.01057193 -41.5390625 76.45703125 C-43.30566406 74.25610352 -43.30566406 74.25610352 -44.5390625 72.45703125 C-44.8690625 75.42703125 -45.1990625 78.39703125 -45.5390625 81.45703125 C-52.4690625 81.45703125 -59.3990625 81.45703125 -66.5390625 81.45703125 C-66.5390625 54.06703125 -66.5390625 26.67703125 -66.5390625 -1.54296875 C-59.6090625 -1.54296875 -52.6790625 -1.54296875 -45.5390625 -1.54296875 C-45.2090625 2.08703125 -44.8790625 5.71703125 -44.5390625 9.45703125 C-43.8584375 8.73515625 -43.1778125 8.01328125 -42.4765625 7.26953125 C-31.36496382 -3.77929004 -14.49435022 -6.3106171 0 0 Z " fill="#020203" transform="translate(274.5390625,241.54296875)"/>
<path d="M0 0 C1.33611328 -0.02416992 1.33611328 -0.02416992 2.69921875 -0.04882812 C14.16886463 -0.05715153 24.44967368 3.55283215 32.98046875 11.3515625 C42.41659021 21.37190912 46.27433028 32.35934131 45.9921875 45.94921875 C45.25324127 56.21103651 41.86742267 64.99870148 35.75 73.3125 C35.09 73.3125 34.43 73.3125 33.75 73.3125 C33.255 74.7975 33.255 74.7975 32.75 76.3125 C30.5703125 78.1015625 30.5703125 78.1015625 27.875 79.9375 C26.99070312 80.54851562 26.10640625 81.15953125 25.1953125 81.7890625 C18.9198545 85.69869289 11.00877807 84.6516047 3.83764648 84.7175293 C2.08321345 84.73902534 0.3288852 84.77302798 -1.42504883 84.82006836 C-20.37515917 85.32304191 -20.37515917 85.32304191 -28.25 78.3125 C-33.86308033 72.97922579 -37.65241669 66.56515835 -40.25 59.3125 C-40.60578125 58.41144531 -40.9615625 57.51039063 -41.328125 56.58203125 C-44.72555117 44.53268505 -42.65527859 30.35887621 -36.71875 19.515625 C-35.32497542 17.31564748 -33.99694243 15.2441192 -32.25 13.3125 C-31.59 13.3125 -30.93 13.3125 -30.25 13.3125 C-30.03859375 12.72726563 -29.8271875 12.14203125 -29.609375 11.5390625 C-27.75660225 8.50434851 -25.58116398 7.42736125 -22.5 5.6875 C-20.96085937 4.80191406 -20.96085937 4.80191406 -19.390625 3.8984375 C-12.76249451 0.55139648 -7.31267357 -0.02600524 0 0 Z " fill="#030304" transform="translate(341.25,238.6875)"/>
<path d="M0 0 C8.88634889 5.92423259 15.06123474 13.80372134 18.42578125 23.984375 C21.22498089 38.14699225 19.52628283 51.78227961 11.7421875 63.984375 C7.18698875 70.35093514 1.58981291 75.74182861 -5.91796875 78.3046875 C-11.35206628 79.11682432 -16.85677522 79.02448204 -22.33789062 78.95654297 C-24.91295504 78.92973969 -27.48366235 78.95636467 -30.05859375 78.98828125 C-45.99103587 79.02197812 -45.99103587 79.02197812 -52.91796875 73.3046875 C-53.56483643 72.78148926 -54.2117041 72.25829102 -54.87817383 71.71923828 C-62.26162042 65.4054783 -67.18660929 54.5514497 -68.15307617 44.97509766 C-68.74501473 33.98013119 -68.78210634 23.9851686 -62.91796875 14.3046875 C-62.47195313 13.5621875 -62.0259375 12.8196875 -61.56640625 12.0546875 C-48.07404522 -7.84466061 -20.13363737 -11.69745464 0 0 Z " fill="#020203" transform="translate(752.91796875,244.6953125)"/>
<path d="M0 0 C7.86517671 6.79207876 12.59583286 15.16666428 14.625 25.3125 C14.625 30.9225 14.625 36.5325 14.625 42.3125 C-5.835 42.3125 -26.295 42.3125 -47.375 42.3125 C-46.32789101 49.64226296 -45.19596005 52.76675556 -39.8125 57.625 C-34.27476896 61.4588138 -27.85534064 60.74399001 -21.375 60.3125 C-17.09574657 58.93702568 -15.82755385 58.04248503 -13.45703125 54.21875 C-11.62143216 51.97312098 -10.70402991 51.37521721 -7.81591797 50.82470703 C-4.71212368 50.72181034 -1.66436802 50.78970177 1.4375 50.9375 C3.04915039 50.97810547 3.04915039 50.97810547 4.69335938 51.01953125 C7.33929568 51.09008955 9.9811124 51.18861244 12.625 51.3125 C11.01876047 57.00926498 9.42993757 61.26673745 5.25 65.625 C4.49976563 66.42550781 3.74953125 67.22601563 2.9765625 68.05078125 C-3.51354484 74.29292768 -7.73177001 76.62064197 -16.76171875 76.71875 C-17.5781636 76.73015015 -18.39460846 76.74155029 -19.23579407 76.7532959 C-20.96305183 76.77216324 -22.69038105 76.78525093 -24.41772461 76.79296875 C-27.03695493 76.81231135 -29.65299527 76.87433848 -32.27148438 76.9375 C-41.45955462 77.05382 -48.42671565 77.07742258 -55.375 70.3125 C-56.36004517 69.46522339 -56.36004517 69.46522339 -57.36499023 68.60083008 C-66.10925742 60.95793542 -69.56896703 49.3531704 -70.6953125 38.1171875 C-71.1552588 25.39200666 -67.20261464 12.83170492 -58.5625 3.31640625 C-43.16343094 -11.12022099 -16.9465287 -12.55948355 0 0 Z " fill="#040404" transform="translate(535.375,246.6875)"/>
<path d="M0 0 C7.96720908 4.15240134 13.61781164 10.23157943 16.92208862 18.73648071 C17.86959491 22.05135661 18.08530758 24.71179167 18.07080078 28.14990234 C18.07064972 29.35069427 18.07049866 30.55148621 18.07034302 31.78866577 C18.06002045 33.07012482 18.04969788 34.35158386 18.0390625 35.671875 C18.0353279 37.00851224 18.03248304 38.34515224 18.03048706 39.68179321 C18.02288577 43.18348882 18.00326788 46.685016 17.9810791 50.18664551 C17.96054474 53.76633425 17.95146918 57.34605046 17.94140625 60.92578125 C17.92001827 67.93757576 17.8848651 74.94923118 17.84375 81.9609375 C10.91375 81.9609375 3.98375 81.9609375 -3.15625 81.9609375 C-3.17083252 80.45789063 -3.18541504 78.95484375 -3.20043945 77.40625 C-3.25859408 71.80754301 -3.33582652 66.20923098 -3.41870117 60.61083984 C-3.45186976 58.19195994 -3.47992658 55.77300415 -3.50268555 53.35400391 C-3.53637935 49.8684874 -3.5887044 46.38366135 -3.64453125 42.8984375 C-3.65092117 41.82416504 -3.6573111 40.74989258 -3.66389465 39.64306641 C-3.78926881 33.1796156 -3.97099665 26.45823906 -8.57221985 21.40625 C-13.84187201 16.8059961 -18.42108204 16.61055524 -25.140625 16.68359375 C-29.60645062 17.09431087 -31.63424704 18.17268516 -35.15625 20.9609375 C-39.14833665 26.00357326 -40.25242635 29.79740101 -40.36157227 36.09667969 C-40.38151749 37.11743591 -40.40146271 38.13819214 -40.42201233 39.18988037 C-40.44708107 40.83225677 -40.44708107 40.83225677 -40.47265625 42.5078125 C-40.49343735 43.634151 -40.51421844 44.7604895 -40.53562927 45.92095947 C-40.60099333 49.51755699 -40.65994885 53.11422727 -40.71875 56.7109375 C-40.7619477 59.1497471 -40.8055624 61.58854934 -40.84960938 64.02734375 C-40.95666134 70.00513384 -41.05796604 75.98299708 -41.15625 81.9609375 C-48.08625 81.9609375 -55.01625 81.9609375 -62.15625 81.9609375 C-62.15625 54.5709375 -62.15625 27.1809375 -62.15625 -1.0390625 C-55.22625 -1.0390625 -48.29625 -1.0390625 -41.15625 -1.0390625 C-40.82625 1.9309375 -40.49625 4.9009375 -40.15625 7.9609375 C-39.16625 6.8471875 -39.16625 6.8471875 -38.15625 5.7109375 C-28.92883207 -3.56920853 -11.77642914 -4.93704145 0 0 Z " fill="#010101" transform="translate(843.15625,241.0390625)"/>
<path d="M0 0 C0.97710937 -0.01998047 1.95421875 -0.03996094 2.9609375 -0.06054688 C12.10979479 -0.05446386 20.31076912 2.3012674 27.08984375 8.6796875 C32.68933815 15.09132231 33.65948755 19.74788792 34.625 28.4375 C27.695 28.4375 20.765 28.4375 13.625 28.4375 C12.965 26.4575 12.305 24.4775 11.625 22.4375 C8.8470962 19.45585012 7.25937756 18.53632629 3.21484375 17.90625 C2.00957031 17.9165625 0.80429687 17.926875 -0.4375 17.9375 C-1.64535156 17.9271875 -2.85320312 17.916875 -4.09765625 17.90625 C-7.42943773 18.18786452 -7.42943773 18.18786452 -9.8046875 20.24609375 C-11.71301374 22.47094905 -11.71301374 22.47094905 -11.4375 26 C-10.72604135 29.51798807 -10.72604135 29.51798807 -8.17480469 31.0378418 C-5.30590306 32.47204244 -2.60251751 33.406319 0.484375 34.26953125 C1.60070312 34.59373047 2.71703125 34.91792969 3.8671875 35.25195312 C6.18819954 35.91233016 8.5111072 36.566084 10.8359375 37.21289062 C21.20451998 40.24599895 28.94173097 44.02458567 34.625 53.4375 C36.78939624 59.93068872 36.43963224 66.51625075 33.625 72.75 C30.56367526 78.25863019 26.20414939 81.64792531 20.625 84.4375 C15.33069293 84.74684412 10.03560037 84.79412522 4.7331543 84.8425293 C2.96505096 84.86402649 1.19705163 84.89803048 -0.57055664 84.94506836 C-18.29721457 85.41221559 -18.29721457 85.41221559 -24.80883789 80.02758789 C-25.32567139 79.50285889 -25.84250488 78.97812988 -26.375 78.4375 C-26.87700928 77.93919678 -27.37901855 77.44089355 -27.89624023 76.92749023 C-32.86698757 71.45653063 -34.33397594 66.7246684 -35.375 59.4375 C-28.115 59.4375 -20.855 59.4375 -13.375 59.4375 C-12.385 61.4175 -11.395 63.3975 -10.375 65.4375 C-7.63244846 68.26458224 -6.13524421 69.32647424 -2.21875 69.8984375 C-1.1153125 69.87007813 -0.011875 69.84171875 1.125 69.8125 C2.78015625 69.79316406 2.78015625 69.79316406 4.46875 69.7734375 C7.58304839 69.44196515 9.84377052 68.8583455 12.625 67.4375 C14.1033226 64.48085481 13.68532783 61.69520263 13.625 58.4375 C7.58936147 55.16584547 1.75268845 53.16811592 -4.875 51.4375 C-14.24605358 48.99053909 -25.08640904 46.15007715 -30.6328125 37.46875 C-33.90161226 30.97686796 -34.73862713 24.81684096 -32.5625 17.828125 C-29.08294197 9.85413786 -23.56966532 5.38616677 -15.79296875 1.7734375 C-10.59204005 -0.07879005 -5.46839606 -0.03936673 0 0 Z " fill="#040404" transform="translate(425.375,238.5625)"/>
<path d="M0 0 C4.69771263 2.53267985 7.72100334 5.88973001 9.89013672 10.71142578 C11.19064545 15.83152236 11.04226031 20.76227538 10.9921875 26.0234375 C10.9893576 27.14694611 10.98652771 28.27045471 10.98361206 29.42800903 C10.97244803 33.00419927 10.94735001 36.5801359 10.921875 40.15625 C10.91184033 42.58593387 10.90271533 45.01562169 10.89453125 47.4453125 C10.87422562 53.3908005 10.83506884 59.33574251 10.796875 65.28125 C-1.743125 65.28125 -14.283125 65.28125 -27.203125 65.28125 C-27.27214827 58.16418347 -27.33183873 51.04828738 -27.36791992 43.93115234 C-27.38296779 41.5121669 -27.40341088 39.09320857 -27.42944336 36.67431641 C-27.466002 33.18905937 -27.4828919 29.7041644 -27.49609375 26.21875 C-27.51931953 24.60734131 -27.51931953 24.60734131 -27.54301453 22.96337891 C-27.54455756 16.01436132 -27.12734814 9.78367181 -22.484375 4.22265625 C-21.8965625 3.76761719 -21.30875 3.31257813 -20.703125 2.84375 C-19.82140625 2.13412109 -19.82140625 2.13412109 -18.921875 1.41015625 C-13.76493076 -1.97701849 -5.73003489 -1.86937308 0 0 Z " fill="#D8D8D9" transform="translate(829.203125,257.71875)"/>
<path d="M0 0 C1.59505208 1.43229167 3.19010417 2.86458333 4.78515625 4.296875 C5.51605469 4.85890625 6.24695313 5.4209375 7 6 C7.93199219 6.72058594 8.86398438 7.44117188 9.82421875 8.18359375 C15.55967942 11.37123483 22.3990194 10.45300842 28.75 10.3125 C30.08982991 10.30099166 31.42967584 10.29121153 32.76953125 10.28320312 C39.49173457 10.34475102 39.49173457 10.34475102 46 9 C48.83210016 8.90382459 51.6394098 8.86533574 54.47157288 8.87301636 C55.34660522 8.87145637 56.22163757 8.86989638 57.12318605 8.86828911 C60.06659735 8.86428816 63.00995742 8.86746528 65.95336914 8.87060547 C68.05891449 8.86925104 70.16445961 8.86747087 72.27000427 8.86529541 C77.99705688 8.86072634 83.72409153 8.86250842 89.45114446 8.8656745 C95.43466952 8.86820046 101.41819302 8.86585993 107.40171814 8.86428833 C117.45018796 8.86246747 127.49865044 8.86487091 137.54711914 8.86962891 C149.17884632 8.87507284 160.81055598 8.87330757 172.44228274 8.8678025 C182.41511722 8.86327076 192.38794643 8.86262108 202.36078161 8.86524117 C208.32329339 8.86680341 214.28579692 8.86699911 220.24830818 8.86370468 C225.85179913 8.86082504 231.45526739 8.8628034 237.05875587 8.86859894 C239.12037875 8.86992597 241.18200351 8.86953338 243.24362564 8.86733627 C246.04758017 8.86462259 248.85146099 8.8680086 251.65541077 8.87301636 C252.48020166 8.87078564 253.30499255 8.86855491 254.15477711 8.86625659 C259.77169974 8.88584987 259.77169974 8.88584987 262 10 C263.89935315 10.14198035 265.80317562 10.22616345 267.70703125 10.28125 C269.4230957 10.33732422 269.4230957 10.33732422 271.17382812 10.39453125 C272.37458984 10.42933594 273.57535156 10.46414063 274.8125 10.5 C277.17329199 10.56909635 279.53397971 10.64187634 281.89453125 10.71875 C283.47004761 10.76418945 283.47004761 10.76418945 285.07739258 10.81054688 C287.80658657 10.9874623 290.33688157 11.39353209 293 12 C293 12.33 293 12.66 293 13 C266.45837582 13.17359425 239.91670803 13.33974339 213.375 13.5 C211.89930306 13.50892281 211.89930306 13.50892281 210.39379406 13.51802588 C156.63736886 13.84262913 102.88250614 14.09923843 49.125 14.0625 C47.86292473 14.06164398 46.60084946 14.06078796 45.30052948 14.05990601 C30.53366659 14.04909569 15.76683786 14.02903516 1 14 C1 26.87 1 39.74 1 53 C-6.26 53 -13.52 53 -21 53 C-21 39.8 -21 26.6 -21 13 C-24.63 13 -28.26 13 -32 13 C-32 12.34 -32 11.68 -32 11 C-21.37517466 9.60658028 -10.69044318 9.91066482 0 10 C0 6.7 0 3.4 0 0 Z " fill="#3791D2" transform="translate(229,313)"/>
<path d="M0 0 C7.26 0 14.52 0 22 0 C22 27.72 22 55.44 22 84 C14.74 84 7.48 84 0 84 C0 56.28 0 28.56 0 0 Z " fill="#050506" transform="translate(558,240)"/>
<path d="M0 0 C4.71872331 3.98469968 8.84301891 8.80347629 10 15 C10.7301225 24.82857218 9.56504262 32.59744555 3.4140625 40.45703125 C-1.34951285 45.65485519 -5.50418906 46.31581351 -12.375 46.625 C-19.4616766 46.428732 -23.93675574 44.98341834 -29 40 C-34.94595294 32.8343644 -35.52842359 25.47812614 -35.375 16.4453125 C-34.6355232 9.65136943 -31.49159969 5.13013238 -26.5625 0.5625 C-18.05112824 -6.05949398 -8.89576344 -5.23179957 0 0 Z " fill="#D6D6D6" transform="translate(645,261)"/>
<path d="M0 0 C5.05491094 3.37289154 7.86456078 7.9326812 10.23046875 13.48828125 C10.56867775 16.18267961 10.75616829 18.55332157 10.73046875 21.23828125 C10.72402344 21.94130371 10.71757812 22.64432617 10.7109375 23.36865234 C10.45842336 30.60683716 8.58460693 36.31033321 3.22265625 41.390625 C-3.79185268 46.89093182 -10.02042071 47.05064682 -18.76953125 46.48828125 C-25.18561014 44.58722084 -29.54458586 39.25658665 -32.87890625 33.609375 C-35.76435854 27.08988611 -36.00812624 19.51944919 -33.92578125 12.7421875 C-30.75073381 5.69486937 -25.94515188 0.95082675 -19.33203125 -2.94921875 C-11.9722121 -4.56478881 -6.62297652 -3.64520413 0 0 Z " fill="#EAF0FB" transform="translate(263.76953125,260.51171875)"/>
<path d="M0 0 C4.69489713 4.18053777 6.82825958 8.73837941 7.30078125 14.9609375 C7.31528319 16.43222538 7.3189307 17.9036547 7.3125 19.375 C7.32861328 20.10460937 7.34472656 20.83421875 7.36132812 21.5859375 C7.36801886 29.07956415 4.79674764 35.16611773 0 41 C-6.33235043 45.02501627 -12.51204658 46.86166077 -20 46 C-27.25994898 43.73531003 -31.24619475 39.26570632 -34.8125 32.625 C-37.51600341 24.49886259 -37.45519139 13.99502838 -33.8125 6.25 C-31.71320481 2.70558092 -29.52293628 0.22501239 -26 -2 C-25.01 -2.66 -24.02 -3.32 -23 -4 C-14.17053054 -6.52270556 -7.5396713 -4.95723655 0 0 Z " fill="#E9EFF9" transform="translate(357,262)"/>
<path d="M0 0 C4.70485143 3.64885271 8.84439743 8.00531166 10 14 C10.80053092 22.77582021 10.90206343 31.37615135 6 39 C0.50963804 44.97700768 -4.75268971 47.65185981 -12.8125 48.3125 C-18.37165175 48.20780788 -22.68610696 46.11424298 -26.765625 42.38671875 C-33.43388132 35.08724399 -33.45780351 27.47083197 -33.23828125 18.078125 C-32.92086672 11.16693176 -31.31191997 6.94002759 -26.125 2.125 C-18.24882901 -4.15020701 -8.92726231 -5.14544854 0 0 Z " fill="#D6D6D6" transform="translate(740,260)"/>
<path d="M0 0 C168.96 0 337.92 0 512 0 C511.67 0.66 511.34 1.32 511 2 C505.74946486 3.07646106 500.59504255 3.13598392 495.25189304 3.10743046 C494.39118742 3.10689593 493.5304818 3.1063614 492.64369419 3.10581067 C489.75792168 3.10278107 486.87222078 3.09251588 483.98646545 3.08229065 C481.8974006 3.078596 479.80833492 3.07534694 477.71926874 3.07250541 C471.97727322 3.06340405 466.23530937 3.04797367 460.49333084 3.03152263 C454.30185591 3.0148881 448.1103705 3.00410494 441.91888428 2.99261475 C431.19122927 2.97190374 420.46358925 2.94751253 409.73594856 2.92053413 C398.48528531 2.89225584 387.23462039 2.86607559 375.98394585 2.84269524 C375.2843219 2.84124015 374.58469795 2.83978506 373.86387328 2.83828588 C370.31081337 2.8309071 366.75775339 2.82356577 363.20469337 2.81623887 C338.04066801 2.76427979 312.87665522 2.70761987 287.71264648 2.64819336 C263.26668783 2.59047334 238.82072586 2.53488391 214.37475586 2.48217773 C213.62117831 2.48055215 212.86760075 2.47892657 212.09118752 2.47725173 C204.52342798 2.46092927 196.95566835 2.4446501 189.38790865 2.42840267 C173.97161283 2.39530401 158.55531764 2.36191633 143.13902283 2.32835388 C142.43021195 2.3268111 141.72140107 2.32526832 140.99111108 2.32367879 C93.66072975 2.22062762 46.33036371 2.11081826 -1 2 C-0.67 1.34 -0.34 0.68 0 0 Z " fill="#C8DDEC" transform="translate(360,327)"/>
<path d="M0 0 C0.33 0 0.66 0 1 0 C1 4.29 1 8.58 1 13 C24.1 13 47.2 13 71 13 C71 13.33 71 13.66 71 14 C-53.41 14 -177.82 14 -306 14 C-306 13.67 -306 13.34 -306 13 C-250.23 12.67 -194.46 12.34 -137 12 C-149.87 11.505 -149.87 11.505 -163 11 C-163 10.67 -163 10.34 -163 10 C-161.95161957 10.00222061 -160.90323914 10.00444122 -159.8230896 10.00672913 C-149.79602644 10.02726861 -139.7689677 10.0421171 -129.74188805 10.05181217 C-124.59061155 10.05696448 -119.43935243 10.06391722 -114.28808594 10.07543945 C-94.05943799 10.11954585 -73.85843716 10.14125918 -53.64317322 9.34115601 C-47.02356195 9.08213531 -40.43272342 8.94173513 -33.80859375 9.04296875 C-32.72569061 9.0583242 -32.72569061 9.0583242 -31.62091064 9.07398987 C-28.83202725 9.11840103 -26.0438359 9.17101353 -23.25561523 9.24682617 C-21.12733317 9.30103333 -18.99988806 9.33019331 -16.87109375 9.35546875 C-15.06016235 9.39643677 -15.06016235 9.39643677 -13.21264648 9.43823242 C-9.37156226 8.91427572 -7.83516939 7.55395388 -5 5 C-4.34 5 -3.68 5 -3 5 C-2.690625 4.360625 -2.38125 3.72125 -2.0625 3.0625 C-1 1 -1 1 0 0 Z " fill="#4D99D1" transform="translate(654,313)"/>
<path d="M0 0 C6.93 0 13.86 0 21 0 C21 12.54 21 25.08 21 38 C14.07 38 7.14 38 0 38 C0 25.46 0 12.92 0 0 Z " fill="#000002" transform="translate(208,327)"/>
<path d="M0 0 C3.9479446 2.31178612 7.62833338 5.29576714 9.6875 9.4375 C9.6875 11.7475 9.6875 14.0575 9.6875 16.4375 C-3.1825 16.4375 -16.0525 16.4375 -29.3125 16.4375 C-27.90942308 6.61596154 -27.90942308 6.61596154 -23.6640625 3.0546875 C-16.64920895 -2.12505668 -8.23027588 -3.71792385 0 0 Z " fill="#D6D6D6" transform="translate(517.3125,257.5625)"/>
<path d="M0 0 C3.23307772 1.61956043 5.36183145 3.7236629 7 7 C7.43540712 11.26196588 7.47065428 14.91749516 5.75 18.875 C3.12335292 22.06450003 0.92280404 23.69239865 -3 25 C-7.15286777 25.39177998 -9.48969587 25.25515206 -13.25 23.375 C-16.40528959 20.64997717 -17.72517404 18.97445739 -19 15 C-19.19884171 10.31064959 -18.62395232 6.96611973 -16.0625 3 C-11.60143646 -1.3258798 -5.89639322 -0.70725968 0 0 Z " fill="#050505" transform="translate(575,205)"/>
<path d="M0 0 C1.59505208 1.43229167 3.19010417 2.86458333 4.78515625 4.296875 C5.51605469 4.85890625 6.24695313 5.4209375 7 6 C7.93199219 6.72058594 8.86398438 7.44117188 9.82421875 8.18359375 C15.55967942 11.37123483 22.3990194 10.45300842 28.75 10.3125 C30.08982991 10.30099166 31.42967584 10.29121153 32.76953125 10.28320312 C39.49173457 10.34475102 39.49173457 10.34475102 46 9 C47.56946379 8.90327242 49.14266241 8.86187159 50.71508789 8.85473633 C52.14655907 8.84516655 52.14655907 8.84516655 53.60694885 8.83540344 C55.14922401 8.83373421 55.14922401 8.83373421 56.72265625 8.83203125 C58.3072892 8.82703865 58.3072892 8.82703865 59.92393494 8.82194519 C62.15737472 8.81688159 64.39082206 8.81453669 66.62426758 8.81469727 C70.05237153 8.81250647 73.48015595 8.79433283 76.90820312 8.77539062 C79.07551973 8.77245753 81.24283787 8.77047217 83.41015625 8.76953125 C84.95546776 8.75875298 84.95546776 8.75875298 86.53199768 8.74775696 C87.48315964 8.75083359 88.43432159 8.75391022 89.41430664 8.75708008 C90.67314415 8.75494255 90.67314415 8.75494255 91.95741272 8.75276184 C94 9 94 9 96 11 C78.84 11.33 61.68 11.66 44 12 C64.79 12.33 85.58 12.66 107 13 C107 13.33 107 13.66 107 14 C72.02 14 37.04 14 1 14 C1 26.87 1 39.74 1 53 C-6.26 53 -13.52 53 -21 53 C-21 52.67 -21 52.34 -21 52 C-14.07 52 -7.14 52 0 52 C0 39.46 0 26.92 0 14 C-3.238125 14.020625 -6.47625 14.04125 -9.8125 14.0625 C-17.25743718 14.08603813 -24.60553097 13.96976643 -32 13 C-32 12.34 -32 11.68 -32 11 C-21.37517466 9.60658028 -10.69044318 9.91066482 0 10 C0 6.7 0 3.4 0 0 Z " fill="#6EA4CE" transform="translate(229,313)"/>
<path d="M0 0 C0.33 0 0.66 0 1 0 C1 18.15 1 36.3 1 55 C4.3 55 7.6 55 11 55 C11 56.32 11 57.64 11 59 C-34.87 59 -80.74 59 -128 59 C-128 58.67 -128 58.34 -128 58 C-111.83 57.67 -95.66 57.34 -79 57 C-79 56.67 -79 56.34 -79 56 C-62.75618979 54.93208867 -46.55071143 54.87640366 -30.27655029 54.93133545 C-26.84973803 54.94175945 -23.42291757 54.94622866 -19.99609375 54.95117188 C-13.33068824 54.96120409 -6.66541025 54.98079747 0 55 C0 36.85 0 18.7 0 0 Z " fill="#458ABD" transform="translate(861,268)"/>
<path d="M0 0 C0 0.33 0 0.66 0 1 C-0.7528125 1.09796875 -1.505625 1.1959375 -2.28125 1.296875 C-14.21420105 2.97675646 -25.76871724 5.59557539 -37 10 C-37.99 10 -38.98 10 -40 10 C-40 10.66 -40 11.32 -40 12 C-42.31 12.66 -44.62 13.32 -47 14 C-46.34 11.69 -45.68 9.38 -45 7 C-46.97993541 7.30759178 -48.95893599 7.6212068 -50.9375 7.9375 C-52.03964844 8.11152344 -53.14179688 8.28554687 -54.27734375 8.46484375 C-56.90426929 8.71845136 -56.90426929 8.71845136 -58 10 C-57.01 10.66 -56.02 11.32 -55 12 C-56 13 -56 13 -58.6875 13.125 C-62 13 -62 13 -64.9375 12.3125 C-69.11775517 11.88594335 -71.27342791 13.13671395 -75 15 C-75.33 14.34 -75.66 13.68 -76 13 C-50.47264815 3.12202472 -27.42236578 -0.42642435 0 0 Z " fill="#1058CF" transform="translate(205,123)"/>
<path d="M0 0 C0.33 0 0.66 0 1 0 C1 4.29 1 8.58 1 13 C24.1 13 47.2 13 71 13 C71 13.33 71 13.66 71 14 C59.21975893 14.07002597 47.43956874 14.12307503 35.65916061 14.15543652 C30.18692332 14.17098144 24.71483016 14.19201115 19.24267578 14.22631836 C13.94526029 14.25931587 8.64798196 14.27693659 3.3504715 14.28463173 C1.34623307 14.29010376 -0.65799929 14.3007849 -2.66217804 14.31719017 C-16.06541208 14.42237163 -28.80303671 13.37379135 -42 11 C-42 10.67 -42 10.34 -42 10 C-41.05680908 9.9906543 -40.11361816 9.98130859 -39.1418457 9.97167969 C-35.62824458 9.9275569 -32.11584747 9.86589795 -28.6027832 9.79248047 C-27.08499315 9.7643283 -25.56705807 9.7430851 -24.04907227 9.72900391 C-21.86138979 9.70749277 -19.67544035 9.66080772 -17.48828125 9.609375 C-16.17384033 9.58842773 -14.85939941 9.56748047 -13.50512695 9.54589844 C-9.5126411 8.92409734 -7.94059566 7.67466063 -5 5 C-4.34 5 -3.68 5 -3 5 C-2.690625 4.360625 -2.38125 3.72125 -2.0625 3.0625 C-1 1 -1 1 0 0 Z " fill="#3D8BC4" transform="translate(654,313)"/>
<path d="M0 0 C0.33 0 0.66 0 1 0 C1 27.39 1 54.78 1 83 C7.93 83 14.86 83 22 83 C21.505 84.485 21.505 84.485 21 86 C-2.43 86 -25.86 86 -50 86 C-49.505 85.01 -49.505 85.01 -49 84 C-32.83 84 -16.66 84 0 84 C0 56.28 0 28.56 0 0 Z " fill="#306E9B" transform="translate(780,240)"/>
<path d="M0 0 C0.66 0.33 1.32 0.66 2 1 C2 1.66 2 2.32 2 3 C3.32 3.33 4.64 3.66 6 4 C5.43152344 4.90878906 4.86304688 5.81757813 4.27734375 6.75390625 C-4.83168865 21.49808668 -11.22465766 36.69211844 -17 53 C-17.33 53 -17.66 53 -18 53 C-19.20117954 43.93892826 -19.38641632 37.17040637 -15 29 C-13.68 29.33 -12.36 29.66 -11 30 C-10.34 27.36 -9.68 24.72 -9 22 C-8.01 22 -7.02 22 -6 22 C-5.87625 21.2575 -5.7525 20.515 -5.625 19.75 C-5.04513299 17.19858515 -4.26291261 15.2732427 -3 13 C-2.34 13 -1.68 13 -1 13 C-1 12.01 -1 11.02 -1 10 C-1.66 10 -2.32 10 -3 10 C-3.36923077 4.58461538 -3.36923077 4.58461538 -1.5 1.625 C-1.005 1.08875 -0.51 0.5525 0 0 Z M0 4 C0.33 5.32 0.66 6.64 1 8 C1.33 7.01 1.66 6.02 2 5 C1.34 4.67 0.68 4.34 0 4 Z " fill="#4C91EA" transform="translate(181,163)"/>
<path d="M0 0 C0 0.33 0 0.66 0 1 C-0.87325928 1.02505615 -1.74651855 1.0501123 -2.64624023 1.07592773 C-5.87602552 1.17087709 -9.10564154 1.27012029 -12.33520508 1.37231445 C-13.73489199 1.41571434 -15.13463359 1.45738564 -16.53442383 1.49731445 C-18.54261495 1.55489445 -20.55061149 1.61914 -22.55859375 1.68359375 C-23.76829834 1.72025146 -24.97800293 1.75690918 -26.22436523 1.79467773 C-28.90705456 1.68938266 -28.90705456 1.68938266 -30 3 C-32.05556661 3.09413687 -34.11440181 3.11742998 -36.17211914 3.11352539 C-37.13794167 3.11374443 -37.13794167 3.11374443 -38.12327576 3.1139679 C-40.26060303 3.11326885 -42.39784413 3.10547691 -44.53515625 3.09765625 C-46.01346285 3.09579204 -47.49177007 3.09436815 -48.97007751 3.09336853 C-52.86798802 3.08954359 -56.76586149 3.07971352 -60.66375732 3.06866455 C-64.63846333 3.05844992 -68.61317529 3.0538708 -72.58789062 3.04882812 C-80.391944 3.03809122 -88.19596682 3.02101509 -96 3 C-96 2.67 -96 2.34 -96 2 C-88.56297457 1.23153862 -81.1849848 0.81160438 -73.7109375 0.68359375 C-72.66018036 0.66276733 -71.60942322 0.64194092 -70.52682495 0.6204834 C-67.14294935 0.55506319 -63.75900327 0.49591199 -60.375 0.4375 C-59.22447144 0.41632111 -58.07394287 0.39514221 -56.8885498 0.37332153 C-37.92410268 0.02459145 -18.96720425 -0.13656051 0 0 Z " fill="#1A7AC2" transform="translate(358,323)"/>
<path d="M0 0 C1.5159375 1.36125 1.5159375 1.36125 3.0625 2.75 C11.5775234 9.88238593 18.18717534 10.72167761 29 11 C28.67 11.66 28.34 12.32 28 13 C18.1 13 8.2 13 -2 13 C-2 12.34 -2 11.68 -2 11 C-1.34 11 -0.68 11 0 11 C0 7.37 0 3.74 0 0 Z " fill="#3D93D4" transform="translate(229,313)"/>
<path d="M0 0 C0.66 0 1.32 0 2 0 C1.0643304 6.32952963 0.07963443 12.63809136 -1.11254883 18.92504883 C-4.88425627 39.12400383 -5.47158595 59.50999345 -6 80 C-6.33 80 -6.66 80 -7 80 C-7 64.16 -7 48.32 -7 32 C-6.34 32 -5.68 32 -5 32 C-5.02835938 31.04222656 -5.05671875 30.08445313 -5.0859375 29.09765625 C-5.08360754 24.46686428 -4.3702485 19.99856414 -3.625 15.4375 C-3.49867188 14.61314453 -3.37234375 13.78878906 -3.2421875 12.93945312 C-2.5245812 8.45082573 -1.59499501 4.2787475 0 0 Z " fill="#5691E1" transform="translate(159,224)"/>
<path d="M0 0 C2.33009435 -0.00221258 4.65973347 -0.0205044 6.98974609 -0.03930664 C8.48062991 -0.04223677 9.97151595 -0.04422411 11.46240234 -0.04516602 C12.15409515 -0.05235153 12.84578796 -0.05953705 13.55844116 -0.06694031 C17.19130973 -0.04969523 19.84859118 0.19807137 22.93896484 2.18530273 C22.93896484 2.51530273 22.93896484 2.84530273 22.93896484 3.18530273 C16.4245128 3.23589663 9.91011116 3.2709913 3.39550781 3.29516602 C1.17804064 3.30524098 -1.03941321 3.31890133 -3.25683594 3.33618164 C-6.43899827 3.36036437 -9.6209854 3.3717707 -12.80322266 3.38061523 C-14.29702957 3.39609909 -14.29702957 3.39609909 -15.8210144 3.41189575 C-17.2022197 3.41212234 -17.2022197 3.41212234 -18.61132812 3.41235352 C-19.42407196 3.41679474 -20.2368158 3.42123596 -21.07418823 3.42581177 C-23.06103516 3.18530273 -23.06103516 3.18530273 -25.06103516 1.18530273 C-16.70398457 0.1427565 -8.4080622 -0.00089581 0 0 Z " fill="#1C77B9" transform="translate(425.06103515625,322.814697265625)"/>
<path d="M0 0 C1.32 0 2.64 0 4 0 C4.66 2.97 5.32 5.94 6 9 C6.99 8.67 7.98 8.34 9 8 C9.45375 8.474375 9.9075 8.94875 10.375 9.4375 C11.93258204 11.09027808 11.93258204 11.09027808 14 12 C13.35780498 13.98035021 12.71114356 15.95925256 12.0625 17.9375 C11.70285156 19.03964844 11.34320313 20.14179688 10.97265625 21.27734375 C10 24 10 24 9 25 C8.76712992 26.68183948 8.58735834 28.3712416 8.4375 30.0625 C8.35371094 30.98160156 8.26992188 31.90070313 8.18359375 32.84765625 C8.12300781 33.55792969 8.06242187 34.26820313 8 35 C7.67 35 7.34 35 7 35 C6.97421875 33.97261719 6.9484375 32.94523437 6.921875 31.88671875 C6.57773441 22.49611024 5.49750104 14.34148978 0.87109375 5.953125 C0 4 0 4 0 0 Z " fill="#E2E7EF" transform="translate(289,252)"/>
<path d="M0 0 C22.35749906 -0.1365953 44.65678621 0.17620628 67 1 C67 1.66 67 2.32 67 3 C61.96460323 3.02477487 56.92924219 3.04289549 51.89379883 3.05493164 C50.18187848 3.05995099 48.46996239 3.06676785 46.75805664 3.07543945 C44.29312078 3.08761021 41.82824175 3.09325238 39.36328125 3.09765625 C38.22080681 3.10539818 38.22080681 3.10539818 37.05525208 3.11329651 C33.21921217 3.11369872 29.73924216 2.81274437 26 2 C23.94366635 1.85708812 21.88428808 1.75463062 19.82421875 1.68359375 C18.66728516 1.64169922 17.51035156 1.59980469 16.31835938 1.55664062 C15.12017578 1.51732422 13.92199219 1.47800781 12.6875 1.4375 C11.46998047 1.39431641 10.25246094 1.35113281 8.99804688 1.30664062 C5.9988053 1.20078504 2.99948409 1.09870274 0 1 C0 0.67 0 0.34 0 0 Z " fill="#1B75B5" transform="translate(491,323)"/>
<path d="M0 0 C3.6801023 1.3711578 7.09936398 3.05524651 10.57226562 4.86914062 C17.5574195 8.50461082 24.22683312 11.41901691 32 13 C32 13.33 32 13.66 32 14 C28.75017 14.08728882 25.5006425 14.14048658 22.25 14.1875 C20.86941406 14.22520508 20.86941406 14.22520508 19.4609375 14.26367188 C18.57148438 14.27333984 17.68203125 14.28300781 16.765625 14.29296875 C15.94868164 14.3086792 15.13173828 14.32438965 14.29003906 14.34057617 C11.48759373 13.92379459 10.11152979 12.83804852 8 11 C8.66 11 9.32 11 10 11 C10 10.34 10 9.68 10 9 C9.34 8.67 8.68 8.34 8 8 C7.67 7.01 7.34 6.02 7 5 C4.57616923 3.83046584 4.57616923 3.83046584 2 3 C1.34 2.67 0.68 2.34 0 2 C0 1.34 0 0.68 0 0 Z " fill="#4B91EB" transform="translate(214,442)"/>
<path d="M0 0 C0.88816406 0.01804687 1.77632812 0.03609375 2.69140625 0.0546875 C4.87870848 0.10172626 7.06379816 0.16742991 9.25 0.25 C6.08376791 2.36082139 3.2870028 3.34949521 -0.3125 4.5625 C-6.40130686 6.68694351 -12.08339665 9.18167791 -17.75 12.25 C-17.75 11.59 -17.75 10.93 -17.75 10.25 C-17.09 10.25 -16.43 10.25 -15.75 10.25 C-15.5025 9.3425 -15.255 8.435 -15 7.5 C-11.962327 -0.39794979 -7.64725119 -0.29369059 0 0 Z " fill="#4E93E9" transform="translate(235.75,122.75)"/>
<path d="M0 0 C-0.99 0.495 -0.99 0.495 -2 1 C-2 1.66 -2 2.32 -2 3 C-1.34 3.33 -0.68 3.66 0 4 C-22.80127986 4.20638953 -22.80127986 4.20638953 -32 3 C-32 2.34 -32 1.68 -32 1 C-21.37719894 -0.39315424 -10.68873373 -0.09675083 0 0 Z " fill="#1B6FAE" transform="translate(229,323)"/>
<path d="M0 0 C0.91265625 0.51046875 0.91265625 0.51046875 1.84375 1.03125 C8.37104066 4.64045778 14.98248753 8.02722331 21.69140625 11.28320312 C24.47863474 12.65232025 26.78779157 13.78779157 29 16 C26.36 15.67 23.72 15.34 21 15 C21 14.34 21 13.68 21 13 C19.68 13 18.36 13 17 13 C17 13.66 17 14.32 17 15 C15.35 15.33 13.7 15.66 12 16 C12.33 14.02 12.66 12.04 13 10 C10.69 9.67 8.38 9.34 6 9 C6 8.34 6 7.68 6 7 C5.38125 6.773125 4.7625 6.54625 4.125 6.3125 C1.38026425 4.61722204 1.06536346 2.97054046 0 0 Z " fill="#CAD5E8" transform="translate(102,428)"/>
<path d="M0 0 C0.33 0 0.66 0 1 0 C1.08040527 0.69448242 1.16081055 1.38896484 1.24365234 2.10449219 C1.61771285 5.32002513 1.99633705 8.53500592 2.375 11.75 C2.50132812 12.84183594 2.62765625 13.93367188 2.7578125 15.05859375 C4.06886163 26.13695886 5.73969586 36.91499126 8.8515625 47.63476562 C9.32883224 49.40031782 9.67466761 51.20024452 10 53 C9.34 53.99 8.68 54.98 8 56 C7.80664062 54.98679687 7.61328125 53.97359375 7.4140625 52.9296875 C7.15125077 51.57808432 6.88821817 50.22652408 6.625 48.875 C6.49867188 48.20984375 6.37234375 47.5446875 6.2421875 46.859375 C5.64667786 43.82227582 4.97270464 40.92068895 3.96484375 37.9921875 C2.61245207 33.79813071 2.20797057 29.57917634 1.70117188 25.21484375 C1.28570649 21.48851853 1.28570649 21.48851853 0 18 C-0.08308638 16.62451844 -0.10736016 15.24514204 -0.09765625 13.8671875 C-0.09443359 13.06152344 -0.09121094 12.25585938 -0.08789062 11.42578125 C-0.07951172 10.58402344 -0.07113281 9.74226563 -0.0625 8.875 C-0.05798828 8.02550781 -0.05347656 7.17601562 -0.04882812 6.30078125 C-0.03702874 4.20049091 -0.01909306 2.1002367 0 0 Z " fill="#5B94E3" transform="translate(153,307)"/>
<path d="M0 0 C2.475 0.495 2.475 0.495 5 1 C5 2.32 5 3.64 5 5 C5.99 5 6.98 5 8 5 C8 4.01 8 3.02 8 2 C9.32 2 10.64 2 12 2 C12 2.66 12 3.32 12 4 C12.66 4 13.32 4 14 4 C14 5.32 14 6.64 14 8 C13.34 8 12.68 8 12 8 C12 8.66 12 9.32 12 10 C13.32 10.66 14.64 11.32 16 12 C16 13.65 16 15.3 16 17 C11.28463617 14.60352625 8.47185805 11.3916515 5.1875 7.375 C4.68541016 6.776875 4.18332031 6.17875 3.66601562 5.5625 C0 1.1533057 0 1.1533057 0 0 Z " fill="#185BC4" transform="translate(64,392)"/>
<path d="M0 0 C2.16070467 2.16070467 2.6622703 3.4780414 3.6875 6.3125 C7.7249498 16.635357 13.38287325 25.87001852 19.62353516 34.9753418 C21.62914989 37.90319174 23.53728148 40.75939156 25 44 C23.68 43.34 22.36 42.68 21 42 C21 41.34 21 40.68 21 40 C20.34 40 19.68 40 19 40 C18.73445313 39.43410156 18.46890625 38.86820312 18.1953125 38.28515625 C17.84210938 37.55167969 17.48890625 36.81820312 17.125 36.0625 C16.77695313 35.33160156 16.42890625 34.60070312 16.0703125 33.84765625 C15.1315023 31.83667541 15.1315023 31.83667541 13 31 C12.66666667 29.66666667 12.33333333 28.33333333 12 27 C11.34 26.67 10.68 26.34 10 26 C9.12915189 24.44799347 8.32587048 22.8575964 7.5625 21.25 C6.23611825 18.49970844 4.93748772 15.9004434 3.3125 13.3125 C0.86786669 9.00528893 0 4.9174773 0 0 Z " fill="#5B94DF" transform="translate(169,379)"/>
<path d="M0 0 C1.44037669 0.93307421 2.87718985 1.87165077 4.3125 2.8125 C5.11300781 3.33457031 5.91351562 3.85664063 6.73828125 4.39453125 C9 6 9 6 12 9 C1.77 9 -8.46 9 -19 9 C-19 8.34 -19 7.68 -19 7 C-18.04738281 7.04640625 -17.09476563 7.0928125 -16.11328125 7.140625 C-14.23189453 7.19476563 -14.23189453 7.19476563 -12.3125 7.25 C-11.07113281 7.29640625 -9.82976563 7.3428125 -8.55078125 7.390625 C-4.4293864 6.93722623 -2.81759834 5.99538179 0 3 C0 2.01 0 1.02 0 0 Z " fill="#CCD7DF" transform="translate(696,314)"/>
<path d="M0 0 C0.68707555 2.49064888 1 4.37886292 1 7 C0.01 7.66 -0.98 8.32 -2 9 C4.93 9.33 11.86 9.66 19 10 C19 10.33 19 10.66 19 11 C8.11 11 -2.78 11 -14 11 C-11.71569364 9.28677023 -9.39863412 7.61161787 -7 6.0625 C-4.32520974 4.2235817 -2.20031375 2.36956865 0 0 Z " fill="#A1BCCE" transform="translate(539,313)"/>
<path d="M0 0 C0.66 0 1.32 0 2 0 C2.185625 1.2065625 2.185625 1.2065625 2.375 2.4375 C2.58125 3.283125 2.7875 4.12875 3 5 C3.66 5.33 4.32 5.66 5 6 C6.36650942 9.48617751 7.50846967 13.02718882 8.68359375 16.58203125 C9.85076386 19.61251745 10.99403437 21.51349664 13 24 C13.33 24.99 13.66 25.98 14 27 C14.66 27.33 15.32 27.66 16 28 C16.33333333 29.33333333 16.66666667 30.66666667 17 32 C17.66 32.33 18.32 32.66 19 33 C19 34.65 19 36.3 19 38 C12.34917891 29.94672316 7.81026149 20.91524664 3.5625 11.4375 C3.20833008 10.65157471 2.85416016 9.86564941 2.48925781 9.0559082 C2.1640918 8.31429443 1.83892578 7.57268066 1.50390625 6.80859375 C1.21330322 6.14657959 0.9227002 5.48456543 0.62329102 4.80249023 C0 3 0 3 0 0 Z " fill="#2C60BE" transform="translate(39,346)"/>
<path d="M0 0 C3.63 0 7.26 0 11 0 C11 0.66 11 1.32 11 2 C12.22976562 1.98259766 12.22976562 1.98259766 13.484375 1.96484375 C15.10085937 1.95130859 15.10085937 1.95130859 16.75 1.9375 C18.35101563 1.92009766 18.35101563 1.92009766 19.984375 1.90234375 C23 2 23 2 24.87695312 2.48632812 C27.27888714 3.06747683 29.51589135 3.21104414 31.984375 3.31640625 C33.38623047 3.37924805 33.38623047 3.37924805 34.81640625 3.44335938 C35.78449219 3.48267578 36.75257813 3.52199219 37.75 3.5625 C38.73355469 3.60568359 39.71710938 3.64886719 40.73046875 3.69335938 C43.15351275 3.79922052 45.5766554 3.90130171 48 4 C48 4.33 48 4.66 48 5 C35.60322806 5.30085508 23.36032642 5.4016783 11.0625 3.625 C9.73279175 3.43587036 9.73279175 3.43587036 8.3762207 3.24291992 C2.27461195 2.27461195 2.27461195 2.27461195 0 0 Z " fill="#1F5BBB" transform="translate(157,451)"/>
<path d="M0 0 C4.30872286 1.43624095 5.54602565 2.54602565 9 6 C-0.24 6 -9.48 6 -19 6 C-19 5.67 -19 5.34 -19 5 C-18.20335937 4.96261719 -17.40671875 4.92523438 -16.5859375 4.88671875 C-7.56695496 4.52113098 -7.56695496 4.52113098 0 0 Z " fill="#CCD8E1" transform="translate(600,317)"/>
<path d="M0 0 C0.33 0 0.66 0 1 0 C1 3.63 1 7.26 1 11 C-3.29 11 -7.58 11 -12 11 C-7 7 -7 7 -4.8125 6 C-2.49587309 4.72186101 -2.00477823 3.39600963 -1 1 C-0.67 0.67 -0.34 0.34 0 0 Z " fill="#B0BFCB" transform="translate(654,313)"/>
<path d="M0 0 C11.55 0.33 23.1 0.66 35 1 C31.64837876 4.35162124 27.26560926 3.29711433 22.7109375 3.32226562 C21.70498535 3.31900269 21.70498535 3.31900269 20.67871094 3.31567383 C18.63942618 3.31252229 16.60160438 3.33593792 14.5625 3.36132812 C12.63277344 3.36229492 12.63277344 3.36229492 10.6640625 3.36328125 C9.48279785 3.36626221 8.3015332 3.36924316 7.08447266 3.37231445 C4 3 4 3 0 0 Z " fill="#08263E" transform="translate(239,321)"/>
<path d="M0 0 C0 0.66 0 1.32 0 2 C-3.465 3.485 -3.465 3.485 -7 5 C-6.01 5.66 -5.02 6.32 -4 7 C-5 8 -5 8 -7.6875 8.125 C-11 8 -11 8 -13.9375 7.3125 C-18.11775517 6.88594335 -20.27342791 8.13671395 -24 10 C-24.33 9.34 -24.66 8.68 -25 8 C-21.91794058 6.85071956 -18.83414029 5.70618337 -15.75 4.5625 C-14.87730469 4.23701172 -14.00460938 3.91152344 -13.10546875 3.57617188 C-12.26113281 3.26357422 -11.41679687 2.95097656 -10.546875 2.62890625 C-9.38430176 2.1968689 -9.38430176 2.1968689 -8.19824219 1.75610352 C-5.44261341 0.80828229 -2.92529998 0 0 0 Z " fill="#185BBE" transform="translate(154,128)"/>
<path d="M0 0 C2.31 1.32 4.62 2.64 7 4 C7 4.33 7 4.66 7 5 C-8.51 5 -24.02 5 -40 5 C-38.68 3.68 -37.36 2.36 -36 1 C-35.67 1.66 -35.34 2.32 -35 3 C-23.45 3 -11.9 3 0 3 C0 2.01 0 1.02 0 0 Z " fill="#D9F1F9" transform="translate(315,318)"/>
<path d="M0 0 C2.64 0.33 5.28 0.66 8 1 C8 1.66 8 2.32 8 3 C4.29282359 3.98358241 0.58406788 4.96107671 -3.125 5.9375 C-4.69507813 6.35418945 -4.69507813 6.35418945 -6.296875 6.77929688 C-7.82441406 7.18051758 -7.82441406 7.18051758 -9.3828125 7.58984375 C-10.78104248 7.95903931 -10.78104248 7.95903931 -12.20751953 8.33569336 C-15.1241535 9.02953503 -18.03833384 9.53950868 -21 10 C-21 9.34 -21 8.68 -21 8 C-18.36 7.67 -15.72 7.34 -13 7 C-13 6.34 -13 5.68 -13 5 C-11.96875 4.71125 -10.9375 4.4225 -9.875 4.125 C-6.54992003 3.17691202 -3.27248547 2.11743406 0 1 C0 0.67 0 0.34 0 0 Z " fill="#C9D7EC" transform="translate(160,122)"/>
<path d="M0 0 C0 0.33 0 0.66 0 1 C-7.78412076 1.96298401 -15.52090435 2.32822991 -23.35546875 2.60546875 C-24.29777344 2.64285156 -25.24007812 2.68023437 -26.2109375 2.71875 C-27.05962402 2.74904297 -27.90831055 2.77933594 -28.78271484 2.81054688 C-31.17327188 2.92758232 -31.17327188 2.92758232 -34 4 C-36.3406065 3.72230092 -38.67624308 3.39460023 -41 3 C-41 2.67 -41 2.34 -41 2 C-27.33050435 -0.28164458 -13.82610232 -0.2149992 0 0 Z " fill="#2660B8" transform="translate(205,123)"/>
<path d="M0 0 C0 3 0 3 -2.4375 5.5 C-3.283125 6.325 -4.12875 7.15 -5 8 C-5.33 8.99 -5.66 9.98 -6 11 C-6.99 11 -7.98 11 -9 11 C-9.99 12.485 -9.99 12.485 -11 14 C-11.66 14 -12.32 14 -13 14 C-13.33 14.99 -13.66 15.98 -14 17 C-14.66 17 -15.32 17 -16 17 C-16 17.99 -16 18.98 -16 20 C-17.32 19.34 -18.64 18.68 -20 18 C-18.71034824 16.62437146 -17.37310707 15.29233607 -16 14 C-15.34 14 -14.68 14 -14 14 C-13.67 13.01 -13.34 12.02 -13 11 C-11.328125 9.31640625 -11.328125 9.31640625 -9.25 7.5625 C-8.53328125 6.9540625 -7.8165625 6.345625 -7.078125 5.71875 C-4.73985682 3.78484399 -2.39123933 1.86815572 0 0 Z " fill="#2C62BE" transform="translate(93,157)"/>
<path d="M0 0 C0.96099609 0.00451172 1.92199219 0.00902344 2.91210938 0.01367188 C5.25397422 0.02532294 7.59570181 0.04167975 9.9375 0.0625 C9.9375 0.3925 9.9375 0.7225 9.9375 1.0625 C7.66750175 1.56627768 5.39646997 2.06540019 3.125 2.5625 C1.22814453 2.98015625 1.22814453 2.98015625 -0.70703125 3.40625 C-4.0625 4.0625 -4.0625 4.0625 -7.0625 4.0625 C-7.0625 3.4025 -7.0625 2.7425 -7.0625 2.0625 C-11.3525 2.0625 -15.6425 2.0625 -20.0625 2.0625 C-20.0625 1.7325 -20.0625 1.4025 -20.0625 1.0625 C-13.33065587 0.18563415 -6.7839632 -0.06137197 0 0 Z " fill="#2C6ED6" transform="translate(216.0625,122.9375)"/>
<path d="M0 0 C0.69867188 0.70898438 1.39734375 1.41796875 2.1171875 2.1484375 C5.03637969 5.06762969 8.06871044 7.85071222 11.125 10.625 C17.41071429 16.33928571 17.41071429 16.33928571 20 19 C12.38755981 17.55980861 12.38755981 17.55980861 10.3125 14.5625 C9 12 9 12 9 10 C8.443125 9.773125 7.88625 9.54625 7.3125 9.3125 C4.31958801 7.61382022 2.26472763 5.57927313 0 3 C0 2.01 0 1.02 0 0 Z " fill="#B5CCEB" transform="translate(70,400)"/>
<path d="M0 0 C2.37146395 3.55719593 4.25766547 7.25335017 6.1875 11.0625 C6.56841797 11.79533203 6.94933594 12.52816406 7.34179688 13.28320312 C8.29057243 15.15836934 9.15251132 17.0769331 10 19 C9.67 19.66 9.34 20.32 9 21 C8.4225 20.175 7.845 19.35 7.25 18.5 C6.13625 17.2625 6.13625 17.2625 5 16 C3.68 16 2.36 16 1 16 C1 14.68 1 13.36 1 12 C1.66 12 2.32 12 3 12 C2.505 10.948125 2.01 9.89625 1.5 8.8125 C0.17220212 5.74547391 -0.30715006 3.37865064 0 0 Z " fill="#C2D0E7" transform="translate(39,349)"/>
<path d="M0 0 C-3.8599267 2.57328447 -7.06059025 2.28800465 -11.53515625 2.265625 C-12.78684853 2.26849518 -12.78684853 2.26849518 -14.06382751 2.27142334 C-15.82649029 2.2727836 -17.58916314 2.26909823 -19.35180664 2.26074219 C-22.05572893 2.25002683 -24.75898884 2.26064961 -27.46289062 2.2734375 C-29.17448064 2.27211614 -30.88607024 2.26955424 -32.59765625 2.265625 C-33.40912613 2.26967346 -34.22059601 2.27372192 -35.05665588 2.27789307 C-40.77007151 2.22992849 -40.77007151 2.22992849 -43 0 C-41.96069336 0.00523682 -40.92138672 0.01047363 -39.85058594 0.01586914 C-35.98910384 0.0339898 -32.12762548 0.04545786 -28.26611328 0.05493164 C-26.59585945 0.05995569 -24.92561001 0.06677605 -23.25537109 0.07543945 C-20.85252804 0.08758946 -18.44974321 0.09324763 -16.046875 0.09765625 C-14.9294693 0.10539818 -14.9294693 0.10539818 -13.78948975 0.11329651 C-8.97811507 0.11381535 -4.57737291 -1.47129843 0 0 Z " fill="#020917" transform="translate(364,321)"/>
<path d="M0 0 C0 1.65 0 3.3 0 5 C-7.75 6 -7.75 6 -10 6 C-10.33 7.32 -10.66 8.64 -11 10 C-12.65 10.33 -14.3 10.66 -16 11 C-16.33 10.01 -16.66 9.02 -17 8 C-14.54429825 6.66161267 -12.08570084 5.32913768 -9.625 4 C-8.92632812 3.6184375 -8.22765625 3.236875 -7.5078125 2.84375 C-2.2265625 0 -2.2265625 0 0 0 Z " fill="#1E60C3" transform="translate(128,137)"/>
<path d="M0 0 C7.59 0 15.18 0 23 0 C18.79545506 3.15340871 18.15476115 3.37706635 13.25 3.25 C12.198125 3.22421875 11.14625 3.1984375 10.0625 3.171875 C6.328637 2.96232146 2.69562147 2.56855715 -1 2 C-0.67 1.34 -0.34 0.68 0 0 Z " fill="#258AD3" transform="translate(329,324)"/>
<path d="M0 0 C-2.60295276 1.31495542 -5.20728033 2.62704986 -7.8125 3.9375 C-8.55048828 4.31068359 -9.28847656 4.68386719 -10.04882812 5.06835938 C-10.76103516 5.42607422 -11.47324219 5.78378906 -12.20703125 6.15234375 C-12.8616333 6.48226318 -13.51623535 6.81218262 -14.19067383 7.15209961 C-16 8 -16 8 -19 9 C-18.0022242 6.00667261 -17.2477975 5.05233685 -15 3 C-15.33 2.01 -15.66 1.02 -16 0 C-13.89651926 -0.19504458 -11.79217415 -0.38078496 -9.6875 -0.5625 C-8.51574219 -0.66691406 -7.34398438 -0.77132812 -6.13671875 -0.87890625 C-3 -1 -3 -1 0 0 Z " fill="#C5D5E8" transform="translate(131,136)"/>
<path d="M0 0 C0 0.99 0 1.98 0 3 C-0.99 3.495 -0.99 3.495 -2 4 C6.58 4 15.16 4 24 4 C24 4.66 24 5.32 24 6 C13.44 6 2.88 6 -8 6 C-5.37886292 3.37886292 -3.17772443 1.80357333 0 0 Z " fill="#C4D4E0" transform="translate(756,317)"/>
<path d="M0 0 C5.86992402 0.56441577 11.37124341 1.76956059 17.0703125 3.28125 C20.03355655 4.00823254 22.98559189 4.53486878 26 5 C26 5.33 26 5.66 26 6 C19.07 6 12.14 6 5 6 C5.99 5.34 6.98 4.68 8 4 C5.36 3.01 2.72 2.02 0 1 C0 0.67 0 0.34 0 0 Z " fill="#2A6FE0" transform="translate(200,450)"/>
<path d="M0 0 C0.5859375 1.90234375 0.5859375 1.90234375 1 4 C-0.375 5.5625 -0.375 5.5625 -2 7 C-2.33 7.99 -2.66 8.98 -3 10 C-2.34 10.33 -1.68 10.66 -1 11 C-1.99 12.485 -1.99 12.485 -3 14 C-3.99 14 -4.98 14 -6 14 C-6 14.99 -6 15.98 -6 17 C-6.99 17 -7.98 17 -9 17 C-7.68925635 12.53817564 -5.92933989 9.00381243 -3.375 5.125 C-2.74335937 4.15820312 -2.11171875 3.19140625 -1.4609375 2.1953125 C-0.73777344 1.10863281 -0.73777344 1.10863281 0 0 Z " fill="#215EBF" transform="translate(55,199)"/>
<path d="M0 0 C1.42678734 3.85232581 0.56476507 6.7689383 -0.375 10.6875 C-1.62461055 16.14812693 -2.51925189 21.42332196 -3 27 C-3.66 26.67 -4.32 26.34 -5 26 C-4.48780149 20.15015389 -3.82482743 14.32250084 -3.0625 8.5 C-2.90910156 7.3140625 -2.75570313 6.128125 -2.59765625 4.90625 C-2 2 -2 2 0 0 Z " fill="#B3CBEB" transform="translate(33,246)"/>
<path d="M0 0 C0.33 0 0.66 0 1 0 C1.38709927 19.44098577 1.38709927 19.44098577 -2 27 C-2.33 27 -2.66 27 -3 27 C-3.17159443 20.82260045 -2.53731344 15.08370312 -1.5 9 C-1.35691406 8.12988281 -1.21382812 7.25976562 -1.06640625 6.36328125 C-0.71661973 4.24124305 -0.3591135 2.12047972 0 0 Z " fill="#C9E6FD" transform="translate(157,241)"/>
<path d="M0 0 C0.66 0 1.32 0 2 0 C0.70369101 2.69673919 -0.7137343 5.18965614 -2.3828125 7.671875 C-2.82753906 8.33574219 -3.27226563 8.99960938 -3.73046875 9.68359375 C-4.19066406 10.36550781 -4.65085937 11.04742187 -5.125 11.75 C-5.59292969 12.44738281 -6.06085937 13.14476562 -6.54296875 13.86328125 C-7.69322295 15.57692526 -8.84633086 17.28865316 -10 19 C-11.25541557 15.23375329 -10.37061958 13.62811066 -9 10 C-8.34 10 -7.68 10 -7 10 C-6.01 8.02 -5.02 6.04 -4 4 C-3.34 4 -2.68 4 -2 4 C-1.34 2.68 -0.68 1.36 0 0 Z " fill="#BAD0EC" transform="translate(64,183)"/>
<path d="M0 0 C0.78552246 0.01047363 1.57104492 0.02094727 2.38037109 0.03173828 C3.23115234 0.03818359 4.08193359 0.04462891 4.95849609 0.05126953 C6.29267578 0.07640625 6.29267578 0.07640625 7.65380859 0.10205078 C8.99958984 0.11558594 8.99958984 0.11558594 10.37255859 0.12939453 C12.59157445 0.15300108 14.81005937 0.18592768 17.02880859 0.22705078 C14.17402534 2.13023962 12.60939551 2.68896068 9.34130859 3.35205078 C8.53306641 3.51962891 7.72482422 3.68720703 6.89208984 3.85986328 C6.27720703 3.98103516 5.66232422 4.10220703 5.02880859 4.22705078 C5.02880859 3.56705078 5.02880859 2.90705078 5.02880859 2.22705078 C2.05880859 2.22705078 -0.91119141 2.22705078 -3.97119141 2.22705078 C-1.97119141 0.22705078 -1.97119141 0.22705078 0 0 Z " fill="#5A8ED7" transform="translate(227.97119140625,122.77294921875)"/>
<path d="M0 0 C1.48285242 0.95262034 2.96118201 1.91228405 4.4375 2.875 C5.67306641 3.67550781 5.67306641 3.67550781 6.93359375 4.4921875 C9 6 9 6 10 8 C6.7 8 3.4 8 0 8 C0 5.36 0 2.72 0 0 Z " fill="#DCECF5" transform="translate(230,315)"/>
<path d="M0 0 C1.11665191 3.71425351 0.79401325 5.50639525 -1 9 C-1.99 9.495 -1.99 9.495 -3 10 C-3.4640625 11.670625 -3.4640625 11.670625 -3.9375 13.375 C-4.91204934 16.69993306 -5.3498113 17.95212691 -8 20 C-9 17 -9 17 -8.28735352 15.09887695 C-7.71392212 14.05413208 -7.71392212 14.05413208 -7.12890625 12.98828125 C-6.51499023 11.85229492 -6.51499023 11.85229492 -5.88867188 10.69335938 C-5.45103516 9.90767578 -5.01339844 9.12199219 -4.5625 8.3125 C-4.12873047 7.51521484 -3.69496094 6.71792969 -3.24804688 5.89648438 C-2.17425237 3.92589446 -1.09135818 1.96090073 0 0 Z " fill="#CCE7FE" transform="translate(181,175)"/>
<path d="M0 0 C1.27310312 0.93441535 2.543388 1.87267111 3.8125 2.8125 C4.52019531 3.33457031 5.22789062 3.85664063 5.95703125 4.39453125 C7.78531393 5.83128877 9.39896688 7.31815763 11 9 C2.625 9 2.625 9 -1 8 C-0.67 7.34 -0.34 6.68 0 6 C0.66 6 1.32 6 2 6 C1.34 4.02 0.68 2.04 0 0 Z " fill="#C3C6C9" transform="translate(476,313)"/>
<path d="M0 0 C0.33 0.66 0.66 1.32 1 2 C0.109375 4.3125 0.109375 4.3125 -1.25 7 C-1.90742188 8.3303125 -1.90742188 8.3303125 -2.578125 9.6875 C-4 12 -4 12 -7 14 C-7.66 13.34 -8.32 12.68 -9 12 C-8.34 12 -7.68 12 -7 12 C-5.74335022 9.09399739 -5 7.20395416 -5 4 C-3.42698959 2.1409877 -2.18380083 1.09190042 0 0 Z " fill="#DADEE5" transform="translate(273,288)"/>
<path d="M0 0 C0.66 0.33 1.32 0.66 2 1 C0.99686938 3.23775292 0.15523165 4.8507388 -1.625 6.5625 C-3.34561132 8.02978279 -3.34561132 8.02978279 -3 11 C-3 11.33 -3 11.66 -3 12 C-4.98 12 -6.96 12 -9 12 C-6.2520787 7.72545575 -3.30749011 3.85873847 0 0 Z " fill="#235EBD" transform="translate(69,180)"/>
<path d="M0 0 C0.99 0.33 1.98 0.66 3 1 C0.34087557 3.7759103 -2.55039222 6.22552899 -5.5 8.6875 C-6.4590625 9.49574219 -7.418125 10.30398437 -8.40625 11.13671875 C-11 13 -11 13 -14 13 C-3.42105263 2.21362229 -3.42105263 2.21362229 0 0 Z " fill="#D5EDFE" transform="translate(214,137)"/>
<path d="M0 0 C0.66 0 1.32 0 2 0 C2.185625 1.2065625 2.185625 1.2065625 2.375 2.4375 C2.58125 3.283125 2.7875 4.12875 3 5 C3.66 5.33 4.32 5.66 5 6 C6.10546875 8.3984375 6.10546875 8.3984375 7.1875 11.375 C7.55230469 12.35210937 7.91710938 13.32921875 8.29296875 14.3359375 C9 17 9 17 8 20 C6.8439273 17.7965194 5.70015279 15.58796844 4.5625 13.375 C4.07426758 12.44880859 4.07426758 12.44880859 3.57617188 11.50390625 C1.61740372 7.66714389 0.46778742 4.28256092 0 0 Z " fill="#2359BB" transform="translate(39,346)"/>
<path d="M0 0 C1.84765625 0.33984375 1.84765625 0.33984375 4.0625 0.9375 C4.79597656 1.13214844 5.52945312 1.32679688 6.28515625 1.52734375 C7.13400391 1.76130859 7.13400391 1.76130859 8 2 C8 2.33 8 2.66 8 3 C-2.89 3 -13.78 3 -25 3 C-25 2.67 -25 2.34 -25 2 C-24.27820557 1.97494385 -23.55641113 1.9498877 -22.81274414 1.92407227 C-19.562465 1.80848698 -16.31250312 1.68559226 -13.0625 1.5625 C-11.92619141 1.52318359 -10.78988281 1.48386719 -9.61914062 1.44335938 C-7.99975586 1.38051758 -7.99975586 1.38051758 -6.34765625 1.31640625 C-5.34742432 1.27974854 -4.34719238 1.24309082 -3.31665039 1.20532227 C-1.03930812 1.25328159 -1.03930812 1.25328159 0 0 Z " fill="#C8DDEC" transform="translate(480,320)"/>
<path d="M0 0 C3.63 0 7.26 0 11 0 C11 0.66 11 1.32 11 2 C13.64 2 16.28 2 19 2 C18.34 2.66 17.68 3.32 17 4 C11.2083163 3.59356606 5.63903699 2.34449261 0 1 C0 0.67 0 0.34 0 0 Z " fill="#2D61C2" transform="translate(157,451)"/>
<path d="M0 0 C1.91385532 2.87078299 2.96432952 5.33411656 4.125 8.5625 C4.47820312 9.53316406 4.83140625 10.50382812 5.1953125 11.50390625 C6 14 6 14 6 16 C5.34 16 4.68 16 4 16 C4 15.01 4 14.02 4 13 C2.68 12.67 1.36 12.34 0 12 C0 8.04 0 4.08 0 0 Z " fill="#5A97E5" transform="translate(163,362)"/>
<path d="M0 0 C0.33 0 0.66 0 1 0 C0.979375 1.0725 0.95875 2.145 0.9375 3.25 C0.9857984 6.14790424 1.13155885 8.28612141 2 11 C1.01 11.33 0.02 11.66 -1 12 C-1.59070014 13.94603274 -1.59070014 13.94603274 -2 16 C-2.66 16.66 -3.32 17.32 -4 18 C-3.31195504 11.80759538 -1.71951285 5.98044406 0 0 Z " fill="#CEE6FD" transform="translate(164,213)"/>
<path d="M0 0 C1.58467728 0.28427417 3.1677057 0.57774818 4.75 0.875 C6.07257813 1.11863281 6.07257813 1.11863281 7.421875 1.3671875 C10 2 10 2 14 4 C7.4 4 0.8 4 -6 4 C-6 3.67 -6 3.34 -6 3 C-3.36 2.67 -0.72 2.34 2 2 C1.34 1.34 0.68 0.68 0 0 Z " fill="#588FDD" transform="translate(232,452)"/>
<path d="M0 0 C4.28553996 0.47957233 6.76931405 3.2187222 9.75 6.0625 C10.25660156 6.53494141 10.76320312 7.00738281 11.28515625 7.49414062 C12.52949613 8.65630711 13.76558064 9.82730161 15 11 C14.01 11.495 14.01 11.495 13 12 C12.34 11.67 11.68 11.34 11 11 C11 10.34 11 9.68 11 9 C10.21625 8.7525 9.4325 8.505 8.625 8.25 C5.56360186 6.79219136 5.41293481 5.92006527 4 3 C1.94999129 2.19471111 1.94999129 2.19471111 0 2 C0 1.34 0 0.68 0 0 Z " fill="#5A92E0" transform="translate(199,430)"/>
<path d="M0 0 C-0.928125 0.4021875 -0.928125 0.4021875 -1.875 0.8125 C-4.2995233 1.95556848 -4.2995233 1.95556848 -6 5 C-8.3431213 4.74438677 -10.67843403 4.40729228 -13 4 C-13.33 3.34 -13.66 2.68 -14 2 C-9.35150485 -0.3992233 -5.08913926 -0.19957409 0 0 Z " fill="#C1C5CD" transform="translate(256,257)"/>
<path d="M0 0 C1 3 1 3 1 6 C0.34 6 -0.32 6 -1 6 C-1 7.65 -1 9.3 -1 11 C-1.33 11 -1.66 11 -2 11 C-2.33 12.98 -2.66 14.96 -3 17 C-3.99 17 -4.98 17 -6 17 C-4.33846988 11.14340094 -2.52958084 5.5409866 0 0 Z " fill="#2D64C0" transform="translate(42,223)"/>
<path d="M0 0 C1.32 0.66 2.64 1.32 4 2 C3.67 2.99 3.34 3.98 3 5 C1.56163249 4.88541307 0.12429034 4.75790884 -1.3125 4.625 C-2.11300781 4.55539062 -2.91351563 4.48578125 -3.73828125 4.4140625 C-6 4 -6 4 -9 2 C-5.67465243 0.89155081 -3.37817425 1.15545644 0 2 C0 1.34 0 0.68 0 0 Z " fill="#D3EDFB" transform="translate(244,450)"/>
<path d="M0 0 C0.99 0 1.98 0 3 0 C3.33 0.99 3.66 1.98 4 3 C1.69 5.31 -0.62 7.62 -3 10 C-3.33 9.01 -3.66 8.02 -4 7 C-3.34 7 -2.68 7 -2 7 C-2 5.35 -2 3.7 -2 2 C-1.34 2 -0.68 2 0 2 C0 1.34 0 0.68 0 0 Z " fill="#4C93EA" transform="translate(198,146)"/>
<path d="M0 0 C2.76595101 1.21701844 5.04015918 2.75140846 7.4375 4.5625 C10.2530469 6.62561626 12.45364011 7.67760365 16 8 C15.67 8.99 15.34 9.98 15 11 C10.92584833 9.59790456 8.01720177 7.65552322 4.6875 4.9375 C3.80449219 4.22464844 2.92148438 3.51179688 2.01171875 2.77734375 C1.34785156 2.19082031 0.68398437 1.60429687 0 1 C0 0.67 0 0.34 0 0 Z " fill="#275FB7" transform="translate(90,418)"/>
<path d="M0 0 C0.66 0.66 1.32 1.32 2 2 C0 5 0 5 -1.625 5.6875 C-5.099828 6.14471421 -8.49586168 6.05840231 -12 6 C-10.9375 4.5 -10.9375 4.5 -9 3 C-6.66666667 3 -4.33333333 3 -2 3 C-1.34 2.01 -0.68 1.02 0 0 Z " fill="#CAD4DC" transform="translate(459,317)"/>
<path d="M0 0 C0.99 0.33 1.98 0.66 3 1 C3 2.32 3 3.64 3 5 C3.99 5.33 4.98 5.66 6 6 C6.70491267 8.32206525 7.37212429 10.65593068 8 13 C8.66 13.33 9.32 13.66 10 14 C9.01 14 8.02 14 7 14 C6.01780373 12.23084525 5.03934641 10.45961431 4.0625 8.6875 C3.51722656 7.70136719 2.97195312 6.71523438 2.41015625 5.69921875 C1 3 1 3 0 0 Z " fill="#D1ECFE" transform="translate(177,395)"/>
<path d="M0 0 C1.79093191 -0.08086147 3.58289628 -0.13912702 5.375 -0.1875 C6.87160156 -0.23970703 6.87160156 -0.23970703 8.3984375 -0.29296875 C9.25695312 -0.19628906 10.11546875 -0.09960938 11 0 C11.66 0.99 12.32 1.98 13 3 C8.48382401 3.07654536 4.40914783 3.10228696 0 2 C0 1.34 0 0.68 0 0 Z " fill="#2987CB" transform="translate(720,324)"/>
<path d="M0 0 C1.62881931 2.97466578 2.54984879 5.74678389 3.25 9.0625 C3.44078125 9.91972656 3.6315625 10.77695312 3.828125 11.66015625 C4 14 4 14 2 17 C0.30167391 11.16200408 -0.25287193 6.06892629 0 0 Z " fill="#649BE7" transform="translate(159,346)"/>
<path d="M0 0 C0.99 0 1.98 0 3 0 C3.66 2.64 4.32 5.28 5 8 C3.02 7.01 1.04 6.02 -1 5 C-0.67 3.35 -0.34 1.7 0 0 Z " fill="#E4E7F0" transform="translate(296,290)"/>
<path d="M0 0 C0 1.66666667 0 3.33333333 0 5 C0.66 5 1.32 5 2 5 C1.67 5.99 1.34 6.98 1 8 C-1.64 6.35 -4.28 4.7 -7 3 C-6.67 2.34 -6.34 1.68 -6 1 C-2.9375 0.375 -2.9375 0.375 0 0 Z " fill="#C9C9C9" transform="translate(371,241)"/>
<path d="M0 0 C0.66 0 1.32 0 2 0 C0.98408579 5.46864457 -0.07091057 10.76390013 -2 16 C-2.33 16 -2.66 16 -3 16 C-2.57910004 10.39538469 -2.08386889 5.27913453 0 0 Z " fill="#518FE4" transform="translate(159,224)"/>
<path d="M0 0 C0.66 0 1.32 0 2 0 C2 2.31 2 4.62 2 7 C0.35 7 -1.3 7 -3 7 C-3 3.47967572 -2.29648649 2.5614657 0 0 Z " fill="#1658C4" transform="translate(60,192)"/>
<path d="M0 0 C0.99 0.33 1.98 0.66 3 1 C0.03 3.64 -2.94 6.28 -6 9 C-6.66 7.68 -7.32 6.36 -8 5 C-6.68 4.67 -5.36 4.34 -4 4 C-4 3.34 -4 2.68 -4 2 C-2.68 2 -1.36 2 0 2 C0 1.34 0 0.68 0 0 Z " fill="#5193E6" transform="translate(210,138)"/>
<path d="M0 0 C0 0.66 0 1.32 0 2 C-5.36439644 4.68219822 -9.01006953 5.3152595 -15 5 C-12.18178397 3.12118931 -10.14357281 2.30990783 -6.9375 1.375 C-6.05964844 1.11460937 -5.18179688 0.85421875 -4.27734375 0.5859375 C-2 0 -2 0 0 0 Z " fill="#2B61BB" transform="translate(154,128)"/>
<path d="M0 0 C1.72880982 -0.05449838 3.45812712 -0.09301688 5.1875 -0.125 C6.15042969 -0.14820313 7.11335938 -0.17140625 8.10546875 -0.1953125 C11.12812778 0.0086456 13.26769985 0.73125368 16 2 C14.68 3.32 13.36 4.64 12 6 C11.77570312 5.35546875 11.55140625 4.7109375 11.3203125 4.046875 C10.17110544 1.75611148 10.17110544 1.75611148 7.6171875 1.390625 C6.25980469 1.32101562 6.25980469 1.32101562 4.875 1.25 C3.96492188 1.19328125 3.05484375 1.1365625 2.1171875 1.078125 C1.41851562 1.05234375 0.71984375 1.0265625 0 1 C0 0.67 0 0.34 0 0 Z " fill="#B6B6B6" transform="translate(502,256)"/>
<path d="M0 0 C0.99 0 1.98 0 3 0 C3.33 0.99 3.66 1.98 4 3 C-1.75 7 -1.75 7 -4 7 C-3.67 5.35 -3.34 3.7 -3 2 C-2.01 2.33 -1.02 2.66 0 3 C0 2.01 0 1.02 0 0 Z " fill="#CAD2E5" transform="translate(101,147)"/>
<path d="M0 0 C0.66 0 1.32 0 2 0 C2 0.66 2 1.32 2 2 C2.66 2 3.32 2 4 2 C4.19622241 6.21878192 3.80230168 9.17010894 2 13 C1.67 13 1.34 13 1 13 C1.020625 11.783125 1.04125 10.56625 1.0625 9.3125 C1.06824116 6.08022678 0.78766315 3.15065259 0 0 Z " fill="#D2D5E4" transform="translate(36,222)"/>
<path d="M0 0 C1.32 0.66 2.64 1.32 4 2 C2.68 2.99 1.36 3.98 0 5 C0 4.34 0 3.68 0 3 C-0.66 3 -1.32 3 -2 3 C-2 3.66 -2 4.32 -2 5 C-3.32 4.67 -4.64 4.34 -6 4 C-4.02 2.68 -2.04 1.36 0 0 Z " fill="#C8C8C8" transform="translate(720,258)"/>
<path d="M0 0 C-0.66 1.32 -1.32 2.64 -2 4 C-2.99 4 -3.98 4 -5 4 C-5 3.34 -5 2.68 -5 2 C-6.65 2.66 -8.3 3.32 -10 4 C-9.67 3.01 -9.34 2.02 -9 1 C-5.8035914 -0.06546953 -3.34252724 -0.07427838 0 0 Z " fill="#CACACA" transform="translate(821,257)"/>
<path d="M0 0 C2.97 0.33 5.94 0.66 9 1 C9 1.66 9 2.32 9 3 C9.66 3 10.32 3 11 3 C11 3.66 11 4.32 11 5 C9.53932801 4.54917531 8.08151968 4.08906463 6.625 3.625 C5.81289062 3.36976563 5.00078125 3.11453125 4.1640625 2.8515625 C2 2 2 2 0 0 Z " fill="#2D64BF" transform="translate(116,436)"/>
<path d="M0 0 C3.09592835 3.5087188 4.74194623 6.49197399 6 11 C5.34 10.67 4.68 10.34 4 10 C4 9.34 4 8.68 4 8 C3.01 7.67 2.02 7.34 1 7 C0.67 4.69 0.34 2.38 0 0 Z " fill="#2174EB" transform="translate(130,376)"/>
<path d="M0 0 C1.25664978 2.90600261 2 4.79604584 2 8 C-1 6.1875 -1 6.1875 -4 4 C-4 3.01 -4 2.02 -4 1 C-2 0 -2 0 0 0 Z " fill="#CDCDCD" transform="translate(579,202)"/>
<path d="M0 0 C0.33 1.32 0.66 2.64 1 4 C-0.25 5.5625 -0.25 5.5625 -2 7 C-2.556875 7.556875 -3.11375 8.11375 -3.6875 8.6875 C-4.120625 9.120625 -4.55375 9.55375 -5 10 C-5.66 9.67 -6.32 9.34 -7 9 C-4.69 6.03 -2.38 3.06 0 0 Z " fill="#CDE8FD" transform="translate(196,154)"/>
<path d="M0 0 C0.33 0 0.66 0 1 0 C1 2.97 1 5.94 1 9 C0.34 9 -0.32 9 -1 9 C-1.33 9.99 -1.66 10.98 -2 12 C-1.85962479 10.18706911 -1.71255111 8.3746557 -1.5625 6.5625 C-1.48128906 5.55316406 -1.40007812 4.54382813 -1.31640625 3.50390625 C-1 1 -1 1 0 0 Z " fill="#3B8CFC" transform="translate(117,247)"/>
<path d="M0 0 C1.18771723 3.42943519 0.80226223 5.37784675 -0.4375 8.75 C-0.86869141 9.94882813 -0.86869141 9.94882813 -1.30859375 11.171875 C-1.53675781 11.77515625 -1.76492187 12.3784375 -2 13 C-2.66 12.67 -3.32 12.34 -4 12 C-3.52309796 10.37433394 -3.04340334 8.74948689 -2.5625 7.125 C-2.29566406 6.22007812 -2.02882812 5.31515625 -1.75390625 4.3828125 C-1 2 -1 2 0 0 Z " fill="#CFEBFF" transform="translate(171,195)"/>
<path d="M0 0 C2.66666667 2.66666667 5.33333333 5.33333333 8 8 C7.67 8.66 7.34 9.32 7 10 C1.21538462 5.69230769 1.21538462 5.69230769 0.125 2.1875 C0.08375 1.465625 0.0425 0.74375 0 0 Z " fill="#BFD4F2" transform="translate(70,400)"/>
<path d="M0 0 C0.66 0 1.32 0 2 0 C0.63055898 2.94956528 -0.87830409 5.52468811 -3 8 C-3.66 8 -4.32 8 -5 8 C-4.67 6.68 -4.34 5.36 -4 4 C-3.34 4 -2.68 4 -2 4 C-1.34 2.68 -0.68 1.36 0 0 Z " fill="#C4D7F2" transform="translate(64,183)"/>
<path d="M0 0 C3 2 3 2 3.6875 4.625 C3.790625 5.40875 3.89375 6.1925 4 7 C3.34 7 2.68 7 2 7 C2 6.34 2 5.68 2 5 C0.35 5 -1.3 5 -3 5 C-2.01 3.35 -1.02 1.7 0 0 Z " fill="#CDDBE1" transform="translate(67,397)"/>
<path d="M0 0 C0.99 0.33 1.98 0.66 3 1 C1.35 2.65 -0.3 4.3 -2 6 C-2.66 5.01 -3.32 4.02 -4 3 C-2.1875 1.4375 -2.1875 1.4375 0 0 Z " fill="#D5DAE3" transform="translate(356,299)"/>
<path d="M0 0 C3 1 3 1 4.0625 2.9375 C4.371875 3.618125 4.68125 4.29875 5 5 C5.66 5.66 6.32 6.32 7 7 C6.01 7.33 5.02 7.66 4 8 C0 2.25 0 2.25 0 0 Z " fill="#DFE4EA" transform="translate(323,294)"/>
<path d="M0 0 C2.31 1.98 4.62 3.96 7 6 C3.86650268 7.04449911 3.01031744 6.93423645 0 6 C0 4.02 0 2.04 0 0 Z " fill="#CACACA" transform="translate(395,276)"/>
<path d="M0 0 C0.66 0.33 1.32 0.66 2 1 C0.90554162 1.86657116 -0.20097781 2.71792724 -1.3125 3.5625 C-1.92738281 4.03816406 -2.54226562 4.51382813 -3.17578125 5.00390625 C-3.77777344 5.33261719 -4.37976563 5.66132813 -5 6 C-5.99 5.67 -6.98 5.34 -8 5 C-7.34 5 -6.68 5 -6 5 C-6 4.34 -6 3.68 -6 3 C-4.03533587 1.93224776 -2.03144641 0.93446535 0 0 Z " fill="#3A8CFA" transform="translate(188,136)"/>
<path d="M0 0 C7.75 0.75 7.75 0.75 10 3 C5.82412255 4.39195915 3.86525224 2.82323219 0 1 C0 0.67 0 0.34 0 0 Z " fill="#3166B7" transform="translate(129,442)"/>
<path d="M0 0 C3 2 3 2 3.6875 4.125 C3.8421875 5.053125 3.8421875 5.053125 4 6 C2.68 6.33 1.36 6.66 0 7 C0 4.69 0 2.38 0 0 Z " fill="#EFF3FB" transform="translate(230,315)"/>
<path d="M0 0 C1.32 0 2.64 0 4 0 C3.67 2.31 3.34 4.62 3 7 C0 3.375 0 3.375 0 0 Z " fill="#CECECE" transform="translate(456,251)"/>
<path d="M0 0 C2.475 0.495 2.475 0.495 5 1 C5 2.32 5 3.64 5 5 C3.35 5 1.7 5 0 5 C0.66 4.67 1.32 4.34 2 4 C2 3.01 2 2.02 2 1 C1.34 0.67 0.68 0.34 0 0 Z " fill="#D9DDE6" transform="translate(352,235)"/>
<path d="M0 0 C2.64 0 5.28 0 8 0 C7.67 0.66 7.34 1.32 7 2 C4.67843403 2.40729228 2.3431213 2.74438677 0 3 C0 2.01 0 1.02 0 0 Z " fill="#C9DCEA" transform="translate(864,327)"/>
<path d="M0 0 C0.99 0.66 1.98 1.32 3 2 C2.67 2.66 2.34 3.32 2 4 C-0.0625 4.625 -0.0625 4.625 -2 5 C-2 2 -2 2 0 0 Z " fill="#DADEE8" transform="translate(357,263)"/>
</svg>
