<?xml version="1.0" encoding="UTF-8"?>
<svg version="1.1" xmlns="http://www.w3.org/2000/svg" width="274" height="274">
<path d="M0 0 C66 0 132 0 200 0 C200 66 200 132 200 200 C134 200 68 200 0 200 C0 134 0 68 0 0 Z " fill="#FDFDFE" transform="translate(38,38)"/>
<path d="M0 0 C6.7055904 4.56335075 11.31424602 11.09892687 13.87890625 18.78125 C14.0664203 20.651033 14.18809999 22.52824054 14.25390625 24.40625 C14.91985696 33.44098131 17.3697658 41.4390159 23.78125 48.0546875 C30.67580734 53.7295373 37.89796935 55.58076155 46.73046875 55.203125 C54.31589457 54.18671559 60.54526922 51.2389251 65.87890625 45.78125 C70.78947923 39.29765225 72.79064009 33.22270865 73.12890625 25.09375 C73.77244365 16.38963403 77.29569337 8.78042868 83.69140625 2.78125 C90.68697358 -2.62742115 96.98437312 -4.94106384 105.890625 -4.6015625 C113.80618249 -3.58754337 121.26111447 0.09128103 126.87890625 5.78125 C132.84204182 14.10885327 134.56489587 20.59303382 133.87890625 30.78125 C132.28351327 39.46126944 127.60792245 46.11405036 120.44140625 51.15625 C114.37494651 55.15586802 108.12747379 55.99227828 101.00390625 56.15625 C75.72058085 57.23628196 53.72268364 68.11862367 36.25390625 86.40625 C22.61269238 102.1743198 15.23379487 121.7012779 14.44140625 142.46875 C14.04927453 151.97555311 12.21732391 160.27131359 5.4375 167.35546875 C-1.93311557 174.09801182 -10.27492053 176.45430289 -20.12109375 176.203125 C-28.31729694 175.05053393 -35.71678523 170.04728748 -40.74609375 163.59375 C-45.80239812 156.06512015 -47.47844287 147.75545907 -46.12109375 138.78125 C-42.85054763 129.0055517 -37.24699559 122.28040156 -28.18359375 117.46875 C-23.76339679 115.63467522 -19.3977954 115.32573404 -14.68359375 114.90625 C-6.31040533 114.1247888 -0.33673864 112.05994941 5.70703125 105.92578125 C11.52260557 98.85392996 13.62572853 90.98994438 13.34765625 81.90625 C12.18936103 74.18428187 8.54870849 67.71449713 2.56640625 62.71875 C-3.70774982 58.42095309 -9.38192371 56.79323582 -16.93359375 56.46875 C-25.69245385 55.8878052 -33.24611448 52.28004558 -39.18359375 45.78125 C-44.97052627 38.38918291 -46.62611515 31.31068069 -46.5234375 22.046875 C-45.59435939 14.50600805 -41.81103599 7.95288409 -36.30859375 2.78125 C-25.27993459 -5.74563392 -12.26536702 -7.0475037 0 0 Z " fill="#1C0296" transform="translate(94.12109375,52.21875)"/>
<path d="M0 0 C0.89912109 -0.01611328 1.79824219 -0.03222656 2.72460938 -0.04882812 C15.3084214 -0.05792705 26.6186193 5.24034277 35.875 13.6875 C45.92177065 24.21574528 50.13316472 36.93138863 49.8984375 51.203125 C49.44944889 63.29810214 43.92795667 74.6531545 35.7265625 83.46875 C23.64459638 94.39343968 9.55986702 98.23106545 -6.34570312 97.49169922 C-17.7305295 96.45440248 -28.53682065 88.92190102 -36.203125 80.875 C-47.21571093 67.49674746 -48.54824212 54.0014885 -47.3125 37.3125 C-45.16149605 25.12801557 -36.11636703 14.44258511 -26.3125 7.3125 C-23.07216751 5.39085047 -19.79725 3.74185692 -16.3125 2.3125 C-15.4359375 1.94511719 -14.559375 1.57773438 -13.65625 1.19921875 C-9.07007155 -0.01697577 -4.72442304 -0.0167177 0 0 Z " fill="#1B0195" transform="translate(178.3125,130.6875)"/>
</svg>
