<?xml version="1.0" encoding="UTF-8"?>
<svg version="1.1" xmlns="http://www.w3.org/2000/svg" width="274" height="274">
<path d="M0 0 C66 0 132 0 200 0 C200 66 200 132 200 200 C134 200 68 200 0 200 C0 134 0 68 0 0 Z " fill="#040918" transform="translate(38,38)"/>
<path d="M0 0 C7.90293408 4.74176045 13.07828665 11.23485996 16 20 C16.1274578 22.0194981 16.22815968 24.04074216 16.3125 26.0625 C16.99084896 35.17465018 19.51119334 42.54860576 25.90234375 49.23828125 C32.73879039 54.97987796 40.03857702 56.79867723 48.8515625 56.421875 C56.37111578 55.41429218 62.72518702 52.51457721 68 47 C72.71548424 40.17641693 74.97481137 35.26447236 75.1875 27 C75.85805446 17.95767466 79.14865401 10.26401523 85.8125 4 C92.80806733 -1.40867115 99.10546687 -3.72231384 108.01171875 -3.3828125 C115.92727624 -2.36879337 123.38220822 1.31003103 129 7 C134.96748584 15.33367849 136.67442371 21.80729449 136 32 C134.63867802 39.90565883 130.22904076 46.58519499 124.01171875 51.60546875 C117.46854323 55.93794031 110.90166077 57.19599524 103.125 57.375 C77.8416746 58.45503196 55.84377739 69.33737367 38.375 87.625 C24.73291907 103.39407204 17.35712416 122.91933152 16.5625 143.6875 C16.14175904 153.65505377 14.07170844 161.8669688 6.99609375 169.27734375 C-0.51050572 175.75564192 -8.13385149 177.42342597 -17.859375 177.3515625 C-25.28955179 176.51982629 -32.41804467 172.09827322 -37.30078125 166.51171875 C-42.7467019 159.52359049 -44.73127534 151.94053781 -44.47265625 143.125 C-43.20494734 134.74345349 -38.78901608 127.54161631 -32.1015625 122.39453125 C-25.66965609 118.126519 -20.16040042 116.80108436 -12.5625 116.125 C-4.18931158 115.3435388 1.78435511 113.27869941 7.828125 107.14453125 C13.64369932 100.07267996 15.74682228 92.20869438 15.46875 83.125 C14.30549978 75.36999852 10.66175105 68.91755806 4.625 63.9375 C-1.66899774 59.6404351 -6.62989233 57.98686137 -14.25 57.6875 C-23.30768955 57.14109645 -30.89766031 53.73350414 -37.0625 47 C-42.84943252 39.60793291 -44.5050214 32.52943069 -44.40234375 23.265625 C-43.47326564 15.72475805 -39.68994224 9.17163409 -34.1875 4 C-24.03539662 -3.84916878 -11.7734288 -5.9720291 0 0 Z " fill="#FCFCFC" transform="translate(92,51)"/>
<path d="M0 0 C12.36898397 7.32976828 20.5270068 18.46604822 25.05078125 31.98046875 C27.60449707 46.43397373 24.30024458 59.90051773 16.4296875 72.125 C9.31629979 82.2691544 -1.97245778 88.70932373 -13.8828125 91.70703125 C-28.74768186 94.01886413 -41.32898349 90.95383535 -53.5703125 82.125 C-61.58210229 75.7445106 -65.54985758 68.34643124 -69.5703125 59.125 C-69.95574219 58.36832031 -70.34117187 57.61164063 -70.73828125 56.83203125 C-74.03321965 46.11187956 -72.74311858 30.94604592 -67.5703125 21.125 C-60.96430081 10.11995119 -52.4846707 2.01197045 -40.5703125 -2.875 C-39.69503906 -3.23722656 -38.81976563 -3.59945312 -37.91796875 -3.97265625 C-25.43020469 -7.33866967 -11.38234811 -6.06899899 0 0 Z " fill="#FDFDFD" transform="translate(202.5703125,135.875)"/>
</svg>
